<svg width="200" height="200" xmlns:xlink="http://www.w3.org/1999/xlink" xmlns="http://www.w3.org/2000/svg"><defs><linearGradient xlink:href="#a" id="b" x1="0" y1="0" x2="26.458" y2="26.458" gradientUnits="userSpaceOnUse" gradientTransform="matrix(7.55905 0 0 7.55905 0 0)"/><linearGradient id="a"><stop style="stop-color:#80deea;stop-opacity:1" offset="0"/><stop style="stop-color:#1976d2;stop-opacity:1" offset="1"/></linearGradient></defs><rect style="fill:url(#b);fill-opacity:1;stroke-width:0" width="200" height="200" ry="0"/><path style="fill:#fff;fill-opacity:.705409;stroke-width:0" d="M128.297 200c-.699-.414-.906-.529-2.531-1.472a742.769 742.769 0 0 0-19.299-10.79 750.688 750.688 0 0 0-8.95-4.755 693.06 693.06 0 0 0-9.816-5.033 610.981 610.981 0 0 0-10.447-5.13 492.396 492.396 0 0 0-16.348-7.48 393.779 393.779 0 0 0-5.511-2.347 345.89 345.89 0 0 0-5.495-2.234 299.938 299.938 0 0 0-5.447-2.1 256.523 256.523 0 0 0-5.371-1.943 216.084 216.084 0 0 0-5.266-1.764 179.12 179.12 0 0 0-5.13-1.562 145.857 145.857 0 0 0-4.967-1.338c-1.625-.406-3.22-.77-4.776-1.09a91.108 91.108 0 0 0-4.55-.82 69.695 69.695 0 0 0-4.3-.528 56.158 56.158 0 0 0-2.046-.146 48.43 48.43 0 0 0-1.97-.065 41.59 41.59 0 0 0-1.895.02c-.619.02-1.224.055-1.815.105-.59.05-1.165.117-1.726.197-.22.032-.426.077-.641.114V200h128.297z"/><path style="fill:#fff;fill-opacity:.948458;stroke-width:0" d="M200 139.588c-.595-.267-1.09-.54-1.686-.784a57.837 57.837 0 0 0-5.576-1.949 55.83 55.83 0 0 0-5.57-1.324 55.586 55.586 0 0 0-5.555-.733 56.91 56.91 0 0 0-5.527-.18 61.776 61.776 0 0 0-8.21.684 69.934 69.934 0 0 0-8.084 1.713 81.18 81.18 0 0 0-5.297 1.654 90.246 90.246 0 0 0-7.781 3.15 100.628 100.628 0 0 0-5.06 2.493c-1.668.878-3.318 1.8-4.945 2.762a127.843 127.843 0 0 0-4.816 2.994 141.312 141.312 0 0 0-4.678 3.19 155.334 155.334 0 0 0-4.527 3.347 169.339 169.339 0 0 0-4.364 3.465 183.718 183.718 0 0 0-4.191 3.549 197.216 197.216 0 0 0-4.004 3.59 210.374 210.374 0 0 0-3.809 3.6A231.827 231.827 0 0 0 96.2 181.263a244.155 244.155 0 0 0-5.547 6.31 238.068 238.068 0 0 0-4.476 5.433 209.86 209.86 0 0 0-3.313 4.254c-1.322 1.745-1.66 2.218-2.029 2.739H200v-60.413z"/><circle style="fill:#fffd93;fill-opacity:1;stroke-width:22.5301;stroke-linecap:round;stroke-linejoin:round;stroke-dashoffset:4" cx="58.314" cy="50.405" r="25.546"/></svg>