<svg width="240" height="240" xmlns="http://www.w3.org/2000/svg"><rect style="fill:#333;fill-opacity:1;stroke:none;stroke-width:15;stroke-linecap:round;stroke-linejoin:round" width="80" height="160" x="40" y="40" ry="10"/><path style="fill:#333;fill-opacity:1;stroke:none;stroke-width:15;stroke-linecap:round;stroke-linejoin:round" d="M120 40h20v20h-20zM140 60h20v20h-20zM160 40h20v20h-20zM180 60h20v20h-20zM120 80h20v20h-20zM160 80h20v20h-20zM140 100h20v20h-20zM180 100h20v20h-20zM120 120h20v20h-20zM160 120h20v20h-20zM140 140h20v20h-20zM180 140h20v20h-20zM120 160h20v20h-20zM160 160h20v20h-20zM140 180h20v20h-20zM180 180h20v20h-20z"/></svg>