<svg width="400" height="400" xmlns="http://www.w3.org/2000/svg"><rect style="fill:#ebebeb;fill-opacity:1;stroke:none;stroke-width:34.029;stroke-linecap:round;stroke-linejoin:round" width="80" height="80" rx="0" ry="0"/><rect style="fill:#fff;fill-opacity:1;stroke:none;stroke-width:34.029;stroke-linecap:round;stroke-linejoin:round" width="80" height="80" x="80" rx="0" ry="0"/><rect style="fill:#ebebeb;fill-opacity:1;stroke:none;stroke-width:34.029;stroke-linecap:round;stroke-linejoin:round" width="80" height="80" x="160" rx="0" ry="0"/><rect style="fill:#fff;fill-opacity:1;stroke:none;stroke-width:34.029;stroke-linecap:round;stroke-linejoin:round" width="80" height="80" x="240" rx="0" ry="0"/><rect style="fill:#fff;fill-opacity:1;stroke:none;stroke-width:34.029;stroke-linecap:round;stroke-linejoin:round" width="80" height="80" y="80" rx="0" ry="0"/><rect style="fill:#ebebeb;fill-opacity:1;stroke:none;stroke-width:34.029;stroke-linecap:round;stroke-linejoin:round" width="80" height="80" x="80" y="80" rx="0" ry="0"/><rect style="fill:#fff;fill-opacity:1;stroke:none;stroke-width:34.029;stroke-linecap:round;stroke-linejoin:round" width="80" height="80" x="160" y="80" rx="0" ry="0"/><rect style="fill:#ebebeb;fill-opacity:1;stroke:none;stroke-width:34.029;stroke-linecap:round;stroke-linejoin:round" width="80" height="80" x="240" y="80" rx="0" ry="0"/><rect style="fill:#ebebeb;fill-opacity:1;stroke:none;stroke-width:34.029;stroke-linecap:round;stroke-linejoin:round" width="80" height="80" y="160" rx="0" ry="0"/><rect style="fill:#fff;fill-opacity:1;stroke:none;stroke-width:34.029;stroke-linecap:round;stroke-linejoin:round" width="80" height="80" x="80" y="160" rx="0" ry="0"/><rect style="fill:#ebebeb;fill-opacity:1;stroke:none;stroke-width:34.029;stroke-linecap:round;stroke-linejoin:round" width="80" height="80" x="160" y="160" rx="0" ry="0"/><rect style="fill:#fff;fill-opacity:1;stroke:none;stroke-width:34.029;stroke-linecap:round;stroke-linejoin:round" width="80" height="80" x="240" y="160" rx="0" ry="0"/><rect style="fill:#fff;fill-opacity:1;stroke:none;stroke-width:34.029;stroke-linecap:round;stroke-linejoin:round" width="80" height="80" y="240" rx="0" ry="0"/><rect style="fill:#ebebeb;fill-opacity:1;stroke:none;stroke-width:34.029;stroke-linecap:round;stroke-linejoin:round" width="80" height="80" x="80" y="240" rx="0" ry="0"/><rect style="fill:#fff;fill-opacity:1;stroke:none;stroke-width:34.029;stroke-linecap:round;stroke-linejoin:round" width="80" height="80" x="160" y="240" rx="0" ry="0"/><rect style="fill:#ebebeb;fill-opacity:1;stroke:none;stroke-width:34.029;stroke-linecap:round;stroke-linejoin:round" width="80" height="80" x="240" y="240" rx="0" ry="0"/><rect style="fill:#ebebeb;fill-opacity:1;stroke:none;stroke-width:34.029;stroke-linecap:round;stroke-linejoin:round" width="80" height="80" x="320" rx="0" ry="0"/><rect style="fill:#fff;fill-opacity:1;stroke:none;stroke-width:34.029;stroke-linecap:round;stroke-linejoin:round" width="80" height="80" x="320" y="80" rx="0" ry="0"/><rect style="fill:#ebebeb;fill-opacity:1;stroke:none;stroke-width:34.029;stroke-linecap:round;stroke-linejoin:round" width="80" height="80" x="320" y="160" rx="0" ry="0"/><rect style="fill:#fff;fill-opacity:1;stroke:none;stroke-width:34.029;stroke-linecap:round;stroke-linejoin:round" width="80" height="80" x="320" y="240" rx="0" ry="0"/><rect style="fill:#ebebeb;fill-opacity:1;stroke:none;stroke-width:34.029;stroke-linecap:round;stroke-linejoin:round" width="80" height="80" y="320" rx="0" ry="0"/><rect style="fill:#fff;fill-opacity:1;stroke:none;stroke-width:34.029;stroke-linecap:round;stroke-linejoin:round" width="80" height="80" x="80" y="320" rx="0" ry="0"/><rect style="fill:#ebebeb;fill-opacity:1;stroke:none;stroke-width:34.029;stroke-linecap:round;stroke-linejoin:round" width="80" height="80" x="160" y="320" rx="0" ry="0"/><rect style="fill:#fff;fill-opacity:1;stroke:none;stroke-width:34.029;stroke-linecap:round;stroke-linejoin:round" width="80" height="80" x="240" y="320" rx="0" ry="0"/><rect style="fill:#ebebeb;fill-opacity:1;stroke:none;stroke-width:34.029;stroke-linecap:round;stroke-linejoin:round" width="80" height="80" x="320" y="320" rx="0" ry="0"/></svg>