<svg width="240" height="240" xmlns="http://www.w3.org/2000/svg"><path style="color:#000;fill:#000;stroke-linecap:round;stroke-linejoin:round;-inkscape-stroke:none" d="M123.357 32.56C82.98 30.995 46.167 57.598 35.5 97.298 24.123 139.644 45.96 184 86.457 200.813c40.497 16.81 87.327.96 109.285-36.995a7.5 7.5 0 0 0-2.736-10.248 7.5 7.5 0 0 0-10.248 2.737c-18.247 31.539-56.898 44.622-90.551 30.652-33.653-13.97-51.675-50.582-42.22-85.772 9.454-35.19 43.398-57.838 79.52-53.062C165.62 52.9 192.505 83.575 192.505 120a7.5 7.5 0 0 0 7.5 7.5 7.5 7.5 0 0 0 7.5-7.5c0-43.834-32.574-81-76.03-86.746a87.912 87.912 0 0 0-8.117-.693z"/><path style="color:#000;fill:#000;stroke-linecap:round;-inkscape-stroke:none" d="M177.633 102.885a7.5 7.5 0 0 0-4.338 3.761 7.5 7.5 0 0 0 3.355 10.063l20 10a7.5 7.5 0 0 0 10.063-3.355 7.5 7.5 0 0 0-3.356-10.063l-20-10a7.5 7.5 0 0 0-5.724-.406z"/></svg>