<svg width="240" height="240" xmlns="http://www.w3.org/2000/svg"><path style="color:#000;fill:#000;stroke-linecap:round;stroke-linejoin:round;-inkscape-stroke:none" d="M40 32.5a7.5 7.5 0 0 0-7.5 7.5v160a7.5 7.5 0 0 0 7.5 7.5h160a7.5 7.5 0 0 0 7.5-7.5V80a7.5 7.5 0 0 0-2.197-5.303l-40-40A7.5 7.5 0 0 0 160 32.5Zm7.5 15h109.393L192.5 83.107V192.5h-145z"/><path style="color:#000;fill:#000;stroke-linecap:round;stroke-linejoin:round;-inkscape-stroke:none" d="M70 32.5a7.5 7.5 0 0 0-7.5 7.5v40a7.5 7.5 0 0 0 7.5 7.5h60a7.5 7.5 0 0 0 7.5-7.5V40a7.5 7.5 0 0 0-7.5-7.5 7.5 7.5 0 0 0-7.5 7.5v32.5h-45V40a7.5 7.5 0 0 0-7.5-7.5Zm0 120a7.5 7.5 0 0 0-7.5 7.5v40a7.5 7.5 0 0 0 7.5 7.5 7.5 7.5 0 0 0 7.5-7.5v-32.5h85V200a7.5 7.5 0 0 0 7.5 7.5 7.5 7.5 0 0 0 7.5-7.5v-40a7.5 7.5 0 0 0-7.5-7.5z"/></svg>