<svg width="240" height="240" xmlns="http://www.w3.org/2000/svg"><path style="color:#000;fill:#000;stroke-linecap:round;stroke-linejoin:round;-inkscape-stroke:none" d="M40 32.5a7.5 7.5 0 0 0-7.5 7.5v40a7.5 7.5 0 0 0 7.5 7.5 7.5 7.5 0 0 0 7.5-7.5V47.5H80a7.5 7.5 0 0 0 7.5-7.5 7.5 7.5 0 0 0-7.5-7.5Zm120 0a7.5 7.5 0 0 0-7.5 7.5 7.5 7.5 0 0 0 7.5 7.5h32.5V80a7.5 7.5 0 0 0 7.5 7.5 7.5 7.5 0 0 0 7.5-7.5V40a7.5 7.5 0 0 0-7.5-7.5Zm-120 120a7.5 7.5 0 0 0-7.5 7.5v40a7.5 7.5 0 0 0 7.5 7.5h40a7.5 7.5 0 0 0 7.5-7.5 7.5 7.5 0 0 0-7.5-7.5H47.5V160a7.5 7.5 0 0 0-7.5-7.5Zm160 0a7.5 7.5 0 0 0-7.5 7.5v32.5H160a7.5 7.5 0 0 0-7.5 7.5 7.5 7.5 0 0 0 7.5 7.5h40a7.5 7.5 0 0 0 7.5-7.5v-40a7.5 7.5 0 0 0-7.5-7.5z"/><path style="color:#000;fill:#000;stroke-width:15;stroke-linecap:round;stroke-linejoin:round;-inkscape-stroke:none" d="M80 72.5a7.5 7.5 0 0 0-7.5 7.5v20a7.5 7.5 0 0 0 7.5 7.5h20a7.5 7.5 0 0 0 7.5-7.5V80a7.5 7.5 0 0 0-7.5-7.5H80zm60 0a7.5 7.5 0 0 0-7.5 7.5v20a7.5 7.5 0 0 0 7.5 7.5h20a7.5 7.5 0 0 0 7.5-7.5V80a7.5 7.5 0 0 0-7.5-7.5h-20zm-60 60a7.5 7.5 0 0 0-7.5 7.5v20a7.5 7.5 0 0 0 7.5 7.5h20a7.5 7.5 0 0 0 7.5-7.5v-20a7.5 7.5 0 0 0-7.5-7.5H80zm60 0a7.5 7.5 0 0 0-7.5 7.5v20a7.5 7.5 0 0 0 7.5 7.5h20a7.5 7.5 0 0 0 7.5-7.5v-20a7.5 7.5 0 0 0-7.5-7.5h-20z"/></svg>