<svg width="1500" height="400" xmlns:xlink="http://www.w3.org/1999/xlink" xmlns="http://www.w3.org/2000/svg"><defs><linearGradient id="a"><stop offset="0" stop-color="#3b41ff" style="stop-color:#3131ff;stop-opacity:1"/><stop offset="1" stop-color="#34ccff" style="stop-color:#4ad3ff;stop-opacity:1"/></linearGradient><linearGradient xlink:href="#b" id="d" x1="184" y1="184" x2="152" y2="152" gradientUnits="userSpaceOnUse" gradientTransform="translate(183.113 435.933)"/><linearGradient id="b"><stop style="stop-color:#00bdf9;stop-opacity:1" offset="0"/><stop style="stop-color:#4242ff;stop-opacity:1" offset="1"/></linearGradient><linearGradient xlink:href="#b" id="e" x1="0" y1="192" x2="192" y2="0" gradientUnits="userSpaceOnUse" gradientTransform="translate(183.113 435.933)"/><linearGradient xlink:href="#b" id="f" gradientUnits="userSpaceOnUse" x1="0" y1="0" x2="192" y2="192" gradientTransform="translate(183.113 435.933)"/><path id="c" d="M507.455 38.29h657.268v344.576H507.455z"/></defs><text xml:space="preserve" style="font-style:normal;font-weight:400;font-size:144px;line-height:1.25;font-family:sans-serif;white-space:pre;shape-inside:url(#c);fill:#000;fill-opacity:1;stroke:none" transform="matrix(1.5201 0 0 1.5201 -239.804 1.537)"><tspan x="507.455" y="183.009"><tspan style="font-family:'Noto Sans';-inkscape-font-specification:'Noto Sans';fill:#115aff">e</tspan><tspan style="font-family:'Noto Sans';-inkscape-font-specification:'Noto Sans'">Search</tspan></tspan></text><path style="fill:none;stroke:url(#d);stroke-width:24;stroke-linecap:round;stroke-linejoin:miter;stroke-miterlimit:4;stroke-dasharray:none;stroke-opacity:1" d="m355.113 607.933-20-20" transform="matrix(1.45455 0 0 1.45455 -74.498 -573.72)"/><path style="fill:url(#e);fill-opacity:1;stroke:none;stroke-width:24;stroke-linecap:round;stroke-linejoin:round;stroke-miterlimit:4;stroke-dasharray:none;stroke-opacity:1" d="M279.113 443.933a88 88 0 0 0-88 88 88 88 0 0 0 88 88 88 88 0 0 0 88-88 88 88 0 0 0-88-88zm0 56a32 32 0 0 1 32 32 32 32 0 0 1-32 32 32 32 0 0 1-32-32 32 32 0 0 1 32-32z" transform="matrix(1.45455 0 0 1.45455 -74.498 -573.72)"/><path style="fill:url(#f);fill-opacity:1;stroke:none;stroke-width:24;stroke-linecap:round;stroke-linejoin:round;stroke-miterlimit:4;stroke-dasharray:none;stroke-opacity:1" d="M279.113 467.933a64 64 0 0 0-64 64 64 64 0 0 0 64 64 64 64 0 0 0 64-64 64 64 0 0 0-64-64zm0 32a32 32 0 0 1 32 32 32 32 0 0 1-32 32 32 32 0 0 1-32-32 32 32 0 0 1 32-32z" transform="matrix(1.45455 0 0 1.45455 -74.498 -573.72)"/></svg>