<svg version="1.1" xmlns="http://www.w3.org/2000/svg" viewBox="0 0 203.87257768616405 204.79424474223498" width="203.87257768616405" height="204.79424474223498">
  <!-- svg-source:excalidraw -->
  
  <defs>
    <style class="style-fonts">
      
    </style>
    
  </defs>
  <rect x="0" y="0" width="203.87257768616405" height="204.79424474223498" fill="#ffffff"></rect><g stroke-linecap="round" transform="translate(15.99083586446136 16.45166939249691) rotate(0 84.10211886647858 85.25420268656731)"><path d="M0 0 C0 0, 0 0, 0 0 M0 0 C0 0, 0 0, 0 0 M-0.26 6.4 C0.46 5.25, 2.75 3.15, 4.99 0.36 M-0.26 6.4 C1.03 4.51, 2.77 3.04, 4.99 0.36 M0.13 12.04 C3.67 9.75, 6.58 6.58, 10.63 -0.03 M0.13 12.04 C2.42 8.84, 4.6 6.86, 10.63 -0.03 M-0.13 18.44 C4.56 14.45, 8.92 11.49, 15.62 0.33 M-0.13 18.44 C6.58 11.72, 12.67 3.71, 15.62 0.33 M0.27 24.08 C9.24 14.5, 13.25 7.08, 21.26 -0.07 M0.27 24.08 C4.82 18.52, 10.6 12.48, 21.26 -0.07 M0 30.48 C10.37 19.19, 18.6 8.59, 26.25 0.29 M0 30.48 C7.93 21.55, 16.77 12.86, 26.25 0.29 M-0.26 36.88 C12.75 24.44, 23.95 12.68, 31.89 -0.1 M-0.26 36.88 C9.03 26.12, 17.74 15.86, 31.89 -0.1 M0.14 42.52 C7.46 32.68, 14.15 24.71, 36.88 0.26 M0.14 42.52 C12.82 28.48, 24.43 15.29, 36.88 0.26 M-0.12 48.92 C9.23 38.48, 21.34 23.36, 42.52 -0.14 M-0.12 48.92 C15.82 28.77, 32.4 10.41, 42.52 -0.14 M0.27 54.56 C14.38 38.54, 29 18.33, 47.51 0.22 M0.27 54.56 C19.06 33.23, 36.08 13.05, 47.51 0.22 M0.01 60.96 C22.02 39.66, 40.14 16.39, 53.15 -0.17 M0.01 60.96 C21.44 36.77, 40.77 13.47, 53.15 -0.17 M-0.25 67.36 C17.72 45.83, 36.87 21.27, 58.14 0.19 M-0.25 67.36 C15.56 50.12, 30.72 32.18, 58.14 0.19 M0.14 73 C19.12 53.09, 38.05 30.54, 63.78 -0.21 M0.14 73 C23.18 45.26, 45.89 20.16, 63.78 -0.21 M-0.12 79.4 C16.26 60.87, 33.59 39.22, 68.77 0.15 M-0.12 79.4 C22.34 53.07, 46.66 25.23, 68.77 0.15 M0.28 85.04 C19.05 62.89, 40.94 40.2, 74.41 -0.24 M0.28 85.04 C15.48 66.07, 32.16 49.55, 74.41 -0.24 M0.01 91.44 C22.33 67.7, 39.87 41.89, 79.4 0.12 M0.01 91.44 C16.63 71.82, 35.01 51.77, 79.4 0.12 M-0.25 97.84 C21.23 75.58, 40.67 52.54, 85.04 -0.28 M-0.25 97.84 C22.39 70.99, 43.59 45.94, 85.04 -0.28 M0.15 103.48 C28.59 66.92, 60.5 29.77, 90.03 0.08 M0.15 103.48 C31.84 66.36, 64.7 29.21, 90.03 0.08 M-0.11 109.88 C22.62 85.89, 41.81 62.13, 95.67 -0.31 M-0.11 109.88 C25.42 80.79, 52.05 52.37, 95.67 -0.31 M0.28 115.52 C24.26 86.84, 48.87 58.49, 100.66 0.05 M0.28 115.52 C40.28 70.07, 80.14 24.74, 100.66 0.05 M0.02 121.92 C24.26 90.3, 49.22 61.01, 106.3 -0.34 M0.02 121.92 C41.26 74.35, 83.61 25.76, 106.3 -0.34 M-0.24 128.32 C31.6 93.92, 64.58 56.73, 111.29 0.02 M-0.24 128.32 C28.23 97.04, 54.67 65.69, 111.29 0.02 M0.15 133.96 C38.35 89.14, 72.9 47.4, 116.27 0.38 M0.15 133.96 C29.25 98.53, 58.92 64.1, 116.27 0.38 M-0.11 140.36 C40.81 94.6, 80.45 45.7, 121.92 -0.02 M-0.11 140.36 C48.97 83.83, 97.41 28.36, 121.92 -0.02 M0.29 146 C30.26 108.04, 60.33 72.66, 126.91 0.34 M0.29 146 C33.37 106.65, 67.96 67.81, 126.91 0.34 M0.02 152.4 C38.38 109.38, 77.99 65.21, 132.55 -0.05 M0.02 152.4 C27.68 122.04, 54.04 91.56, 132.55 -0.05 M-0.24 158.8 C48.6 101.54, 95.86 45.24, 137.54 0.31 M-0.24 158.8 C37.43 115.46, 76.84 69.77, 137.54 0.31 M0.16 164.44 C51.3 102.69, 104.08 39.81, 143.18 -0.09 M0.16 164.44 C32.54 127.75, 62.46 91.43, 143.18 -0.09 M-0.1 170.84 C58.77 103.17, 117.7 37.94, 148.17 0.27 M-0.1 170.84 C55.38 106.37, 110.79 42.32, 148.17 0.27 M5.54 170.44 C34.67 133.91, 68.91 99.92, 153.81 -0.12 M5.54 170.44 C39.7 130.52, 75.24 90.33, 153.81 -0.12 M10.53 170.8 C51.18 125.61, 89.2 83.14, 158.8 0.24 M10.53 170.8 C46.63 127.31, 83.44 84.46, 158.8 0.24 M16.17 170.41 C75.11 102.11, 135.16 34.81, 164.44 -0.16 M16.17 170.41 C55.3 125.02, 96.8 79.21, 164.44 -0.16 M21.16 170.77 C57.08 129.66, 89.96 89.99, 168.11 1.71 M21.16 170.77 C52.6 131.22, 85.55 93.87, 168.11 1.71 M26.8 170.37 C70.21 120.36, 113.36 69, 168.51 7.36 M26.8 170.37 C78.5 111.07, 129.16 54.42, 168.51 7.36 M31.79 170.73 C83.93 112.06, 135.36 49.96, 168.25 13.75 M31.79 170.73 C67.3 129.17, 103.46 89.04, 168.25 13.75 M37.43 170.34 C72.27 128.38, 107.79 89.65, 167.98 20.15 M37.43 170.34 C82.39 116.88, 127.46 62.98, 167.98 20.15 M42.42 170.7 C81.94 121.32, 122.69 75.77, 168.38 25.79 M42.42 170.7 C82.2 123.33, 122.71 76.57, 168.38 25.79 M48.06 170.3 C73.81 142.56, 97.04 113.55, 168.12 32.19 M48.06 170.3 C90.64 121.56, 134.35 72.38, 168.12 32.19 M53.05 170.66 C85.25 138.25, 115.9 102.72, 168.51 37.83 M53.05 170.66 C77.09 142.04, 100.79 114.3, 168.51 37.83 M58.69 170.27 C81.93 139.82, 106.68 113.29, 168.25 44.23 M58.69 170.27 C87.13 135.89, 118.08 100.78, 168.25 44.23 M63.68 170.63 C104.73 122.41, 144.17 76.93, 167.99 50.63 M63.68 170.63 C101.54 127.35, 139.29 82.98, 167.99 50.63 M69.32 170.23 C108.66 128.45, 145.01 84.22, 168.38 56.27 M69.32 170.23 C93.49 143.14, 116.73 116.53, 168.38 56.27 M74.31 170.59 C100.17 142.69, 123.87 113.75, 168.12 62.67 M74.31 170.59 C94.08 147.7, 115.43 123.25, 168.12 62.67 M79.29 170.95 C107.18 136.92, 137.19 104.21, 168.52 68.31 M79.29 170.95 C98.12 147.45, 118 125.18, 168.52 68.31 M84.94 170.56 C101.79 151.48, 120.57 132.9, 168.26 74.71 M84.94 170.56 C105.49 146.85, 126.84 122.72, 168.26 74.71 M89.92 170.92 C110.31 147.4, 131.01 124.96, 167.99 81.11 M89.92 170.92 C106.56 153.07, 123.67 133.03, 167.99 81.11 M95.57 170.53 C118.25 146.06, 140.16 117.6, 168.39 86.75 M95.57 170.53 C123.01 139.84, 149.91 107.24, 168.39 86.75 M100.55 170.89 C127.56 139.66, 153.39 110.8, 168.13 93.15 M100.55 170.89 C115.61 153.66, 129.87 138.24, 168.13 93.15 M106.2 170.49 C125.52 150.76, 140.92 129.71, 168.52 98.79 M106.2 170.49 C125.08 150.41, 143.48 129.08, 168.52 98.79 M111.18 170.85 C129.54 149.68, 143.69 133.6, 168.26 105.19 M111.18 170.85 C126.77 153.02, 141.69 134.78, 168.26 105.19 M116.83 170.46 C135.36 150.66, 155.85 126.41, 168 111.59 M116.83 170.46 C137.49 147.87, 155.46 125.85, 168 111.59 M121.81 170.82 C133.79 155.31, 150.64 140.49, 168.39 117.23 M121.81 170.82 C133.87 157.5, 145 144.2, 168.39 117.23 M127.46 170.42 C135.9 159.84, 142.63 150.99, 168.13 123.63 M127.46 170.42 C143.85 152.17, 159.81 133.23, 168.13 123.63 M132.44 170.78 C142.21 157.72, 157.6 144.16, 168.53 129.27 M132.44 170.78 C140.45 160.88, 149.22 151.52, 168.53 129.27 M138.09 170.39 C148.11 157.68, 160.13 144.99, 168.27 135.67 M138.09 170.39 C149.43 157.82, 159.83 145.39, 168.27 135.67 M143.07 170.75 C149.84 163.24, 155.63 155.42, 168 142.07 M143.07 170.75 C151.85 160.5, 160.31 151.08, 168 142.07 M148.72 170.35 C153.2 162.72, 158.09 157.92, 168.4 147.71 M148.72 170.35 C154.61 163.49, 158.62 157.89, 168.4 147.71 M153.7 170.71 C155.26 165.56, 159.09 163.63, 168.14 154.11 M153.7 170.71 C158.2 165.79, 161.32 160.48, 168.14 154.11 M159.35 170.32 C161.93 168.24, 163.31 165.59, 168.53 159.75 M159.35 170.32 C162.72 166.62, 166.92 162.13, 168.53 159.75 M164.33 170.68 C166.41 168.91, 166.98 167.42, 168.27 166.15 M164.33 170.68 C165.07 169.56, 166.39 168.42, 168.27 166.15" stroke="#a5d8ff" stroke-width="0.5" fill="none"></path><path d="M0 0 C50.5 -0.1, 99.62 0.91, 168.2 0 M168.2 0 C166.82 46.2, 166.31 95.84, 168.2 170.51 M168.2 170.51 C121.78 171.75, 74.74 169.88, 0 170.51 M0 170.51 C-0.95 132.78, 1.99 91.77, 0 0" stroke="#1971c2" stroke-width="1.5" fill="none" stroke-dasharray="8 9"></path></g><g stroke-linecap="round" transform="translate(19.216670560709872 20.59917114481641) rotate(0 20.967925525615215 20.0462584695442)"><path d="M-0.46 0.34 L41.05 0.67 L41.32 40.41 L0.03 40.33" stroke="none" stroke-width="0" fill="#a5d8ff"></path><path d="M0 0 C12.52 -0.19, 25.42 -0.65, 41.94 0 M41.94 0 C41.26 9.64, 41.35 18.75, 41.94 40.09 M41.94 40.09 C30.82 39.8, 18.99 40.46, 0 40.09 M0 40.09 C-0.86 25.33, -0.75 11.22, 0 0" stroke="#1971c2" stroke-width="1.5" fill="none" stroke-dasharray="8 9"></path></g><g stroke-linecap="round" transform="translate(139.03338784993957 138.11172079386864) rotate(0 21.428759053650765 23.041676401774936)"><path d="M0.68 -0.03 L43.84 0.32 L42.55 46.55 L-0.11 45.43" stroke="none" stroke-width="0" fill="#a5d8ff"></path><path d="M0 0 C10.88 0.43, 21.65 -0.98, 42.86 0 M42.86 0 C42.47 9.98, 43.13 22.53, 42.86 46.08 M42.86 46.08 C34.05 45.14, 23.01 45.41, 0 46.08 M0 46.08 C-0.32 31.98, 0.39 19.42, 0 0" stroke="#1971c2" stroke-width="1.5" fill="none" stroke-dasharray="8 9"></path></g><g stroke-linecap="round" transform="translate(35.80667756998787 36.26751109802336) rotate(0 4.147501752319499 3.9170849883017524)"><path d="M2.28 0.66 C2.28 0.66, 2.28 0.66, 2.28 0.66 M2.28 0.66 C2.28 0.66, 2.28 0.66, 2.28 0.66 M2.02 7.06 C3.61 5.15, 5.27 3.65, 7.27 1.02 M2.02 7.06 C3.14 5.79, 3.99 4.59, 7.27 1.02" stroke="#a5d8ff" stroke-width="0.5" fill="none"></path><path d="M4.68 -0.21 C5.52 -0.27, 6.62 0.13, 7.22 0.74 C7.81 1.34, 8.2 2.53, 8.27 3.41 C8.33 4.3, 8.07 5.29, 7.6 6.05 C7.12 6.81, 6.22 7.7, 5.4 7.98 C4.59 8.25, 3.49 8.13, 2.7 7.69 C1.91 7.26, 1.03 6.16, 0.65 5.39 C0.27 4.62, 0.21 3.8, 0.43 3.08 C0.65 2.35, 1.29 1.54, 1.96 1.04 C2.62 0.53, 3.93 0.21, 4.41 0.05 C4.89 -0.1, 4.82 0.09, 4.83 0.13" stroke="#1971c2" stroke-width="1.5" fill="none" stroke-dasharray="8 9"></path></g><g stroke-linecap="round" transform="translate(155.62339485921757 156.54506191528858) rotate(0 4.838752044372768 4.608335280354993)"><path d="M2.28 0.66 C2.28 0.66, 2.28 0.66, 2.28 0.66 M2.28 0.66 C2.28 0.66, 2.28 0.66, 2.28 0.66 M2.02 7.06 C4.21 5.04, 5.94 2.73, 7.27 1.02 M2.02 7.06 C4.13 4.62, 5.99 2.33, 7.27 1.02 M5.04 9.68 C6.43 8.02, 7.93 6, 9.63 4.4 M5.04 9.68 C6.34 8.32, 7.52 6.89, 9.63 4.4" stroke="#a5d8ff" stroke-width="0.5" fill="none"></path><path d="M5.37 -0.02 C6.38 0.07, 7.64 0.91, 8.36 1.68 C9.08 2.45, 9.62 3.64, 9.71 4.59 C9.8 5.54, 9.51 6.63, 8.89 7.38 C8.27 8.13, 7.09 8.95, 5.99 9.11 C4.88 9.26, 3.2 8.85, 2.26 8.34 C1.32 7.82, 0.67 6.88, 0.37 6.02 C0.08 5.16, 0.23 4.03, 0.51 3.18 C0.79 2.33, 1.16 1.42, 2.05 0.93 C2.93 0.44, 5.22 0.44, 5.81 0.26 C6.41 0.08, 5.65 -0.17, 5.6 -0.14" stroke="#1971c2" stroke-width="1.5" fill="none" stroke-dasharray="8 9"></path></g><g stroke-linecap="round" transform="translate(10 9.999999999999943) rotate(0 6.451669392496967 6.2212526284792204)"><path d="M5.16 0 C6.26 -0.44, 7.63 -0.15, 8.8 0.48 C9.97 1.11, 11.46 2.56, 12.18 3.78 C12.89 5, 13.47 6.49, 13.09 7.81 C12.71 9.13, 11.19 11, 9.92 11.71 C8.66 12.42, 6.77 12.2, 5.5 12.07 C4.22 11.93, 3.16 11.72, 2.26 10.89 C1.35 10.07, 0.26 8.53, 0.07 7.11 C-0.13 5.69, 0.18 3.49, 1.09 2.39 C2.01 1.28, 4.86 0.79, 5.54 0.48 C6.22 0.17, 5.13 0.39, 5.17 0.51" stroke="#e03131" stroke-width="1.5" fill="none" stroke-dasharray="8 9"></path></g><g stroke-linecap="round" transform="translate(175.90007009277952 180.04757184509901) rotate(0 8.986253796692267 7.373336448567983)"><path d="M7.43 0.16 C9.2 -0.27, 11.85 0.55, 13.43 1.23 C15 1.92, 16.16 2.96, 16.9 4.27 C17.63 5.59, 18.38 7.61, 17.81 9.12 C17.25 10.62, 15.15 12.34, 13.52 13.3 C11.89 14.27, 9.87 15.09, 8.04 14.9 C6.21 14.71, 3.83 13.39, 2.53 12.16 C1.22 10.92, 0.39 9.06, 0.2 7.5 C0.01 5.93, 0.1 4.03, 1.38 2.75 C2.66 1.48, 6.66 0.25, 7.87 -0.17 C9.07 -0.58, 8.59 0.09, 8.62 0.25" stroke="#e03131" stroke-width="1.5" fill="none" stroke-dasharray="8 9"></path></g></svg>