<svg width="240" height="240" xmlns="http://www.w3.org/2000/svg"><path style="color:#000;fill:#333;stroke-linecap:round;stroke-linejoin:round;-inkscape-stroke:none" d="M121.096 32.506c-4.201-.053-8.4.198-12.565.748C65.075 39 32.5 76.166 32.5 120a7.5 7.5 0 0 0 7.5 7.5 7.5 7.5 0 0 0 7.5-7.5c0-36.425 26.885-67.099 62.996-71.875a72.516 72.516 0 0 1 10.412-.62c32.49.408 60.679 22.302 69.11 53.682a72.498 72.498 0 0 1 .002 37.61 7.5 7.5 0 0 0 5.296 9.19 7.5 7.5 0 0 0 9.19-5.3 87.502 87.502 0 0 0-.002-45.39c-10.155-37.8-44.272-64.3-83.408-64.791ZM52.682 152.814a7.5 7.5 0 0 0-5.69.76 7.5 7.5 0 0 0-2.726 10.25c19.835 34.21 60.256 50.883 98.443 40.604a7.5 7.5 0 0 0 5.293-9.192 7.5 7.5 0 0 0-9.191-5.293c-31.705 8.535-65.1-5.239-81.569-33.642a7.5 7.5 0 0 0-4.56-3.487z"/><path style="color:#000;fill:#333;stroke-linecap:round;stroke-linejoin:round;-inkscape-stroke:none" d="M120 62.5a7.5 7.5 0 0 0-7.5 7.5v50a7.5 7.5 0 0 0 7.5 7.5h30a7.5 7.5 0 0 0 7.5-7.5 7.5 7.5 0 0 0-7.5-7.5h-22.5V70a7.5 7.5 0 0 0-7.5-7.5Z"/><path style="color:#000;fill:#333;stroke-linecap:round;-inkscape-stroke:none" d="M62.371 102.885a7.5 7.5 0 0 0-5.725.406l-20 10a7.5 7.5 0 0 0-3.355 10.063 7.5 7.5 0 0 0 10.063 3.355l20-10a7.5 7.5 0 0 0 3.355-10.063 7.5 7.5 0 0 0-4.338-3.761zM170 132.5a7.5 7.5 0 0 0-7.5 7.5v22.5H140a7.5 7.5 0 0 0-7.5 7.5 7.5 7.5 0 0 0 7.5 7.5h22.5V200a7.5 7.5 0 0 0 7.5 7.5 7.5 7.5 0 0 0 7.5-7.5v-22.5H200a7.5 7.5 0 0 0 7.5-7.5 7.5 7.5 0 0 0-7.5-7.5h-22.5V140a7.5 7.5 0 0 0-7.5-7.5z"/></svg>