<svg width="240" height="240" xmlns="http://www.w3.org/2000/svg"><path style="color:#000;fill:#333;stroke-linecap:round;stroke-linejoin:round;-inkscape-stroke:none" d="M80 72.5a7.5 7.5 0 0 0-7.5 7.5v120a7.5 7.5 0 0 0 7.5 7.5h120a7.5 7.5 0 0 0 7.5-7.5V80a7.5 7.5 0 0 0-7.5-7.5Zm7.5 15h105v105h-105z"/><circle style="fill:#333;fill-opacity:1;stroke:none;stroke-width:15;stroke-linecap:round;stroke-linejoin:round" cx="40" cy="40" r="7.5"/><circle style="fill:#333;fill-opacity:1;stroke:none;stroke-width:15;stroke-linecap:round;stroke-linejoin:round" cx="60" cy="40" r="7.5"/><circle style="fill:#333;fill-opacity:1;stroke:none;stroke-width:15;stroke-linecap:round;stroke-linejoin:round" cx="80" cy="40" r="7.5"/><circle style="fill:#333;fill-opacity:1;stroke:none;stroke-width:15;stroke-linecap:round;stroke-linejoin:round" cx="100" cy="40" r="7.5"/><circle style="fill:#333;fill-opacity:1;stroke:none;stroke-width:15;stroke-linecap:round;stroke-linejoin:round" cx="120" cy="40" r="7.5"/><circle style="fill:#333;fill-opacity:1;stroke:none;stroke-width:15;stroke-linecap:round;stroke-linejoin:round" cx="140" cy="40" r="7.5"/><circle style="fill:#333;fill-opacity:1;stroke:none;stroke-width:15;stroke-linecap:round;stroke-linejoin:round" cx="60" cy="-40" r="7.5" transform="rotate(90)"/><circle style="fill:#333;fill-opacity:1;stroke:none;stroke-width:15;stroke-linecap:round;stroke-linejoin:round" cx="80" cy="-40" r="7.5" transform="rotate(90)"/><circle style="fill:#333;fill-opacity:1;stroke:none;stroke-width:15;stroke-linecap:round;stroke-linejoin:round" cx="100" cy="-40" r="7.5" transform="rotate(90)"/><circle style="fill:#333;fill-opacity:1;stroke:none;stroke-width:15;stroke-linecap:round;stroke-linejoin:round" cx="120" cy="-40" r="7.5" transform="rotate(90)"/><circle style="fill:#333;fill-opacity:1;stroke:none;stroke-width:15;stroke-linecap:round;stroke-linejoin:round" cx="140" cy="-40" r="7.5" transform="rotate(90)"/><circle style="fill:#333;fill-opacity:1;stroke:none;stroke-width:15;stroke-linecap:round;stroke-linejoin:round" cx="60" cy="-160" r="7.5" transform="rotate(90)"/><circle style="fill:#333;fill-opacity:1;stroke:none;stroke-width:15;stroke-linecap:round;stroke-linejoin:round" cx="100" cy="-160" r="7.5" transform="rotate(90)"/><circle style="fill:#333;fill-opacity:1;stroke:none;stroke-width:15;stroke-linecap:round;stroke-linejoin:round" cx="120" cy="-160" r="7.5" transform="rotate(90)"/><circle style="fill:#333;fill-opacity:1;stroke:none;stroke-width:15;stroke-linecap:round;stroke-linejoin:round" cx="140" cy="-160" r="7.5" transform="rotate(90)"/><circle style="fill:#333;fill-opacity:1;stroke:none;stroke-width:15;stroke-linecap:round;stroke-linejoin:round" cx="160" cy="40" r="7.5"/><circle style="fill:#333;fill-opacity:1;stroke:none;stroke-width:15;stroke-linecap:round;stroke-linejoin:round" cx="40" cy="160" r="7.5"/><circle style="fill:#333;fill-opacity:1;stroke:none;stroke-width:15;stroke-linecap:round;stroke-linejoin:round" cx="60" cy="160" r="7.5"/><circle style="fill:#333;fill-opacity:1;stroke:none;stroke-width:15;stroke-linecap:round;stroke-linejoin:round" cx="100" cy="160" r="7.5"/><circle style="fill:#333;fill-opacity:1;stroke:none;stroke-width:15;stroke-linecap:round;stroke-linejoin:round" cx="120" cy="160" r="7.5"/><circle style="fill:#333;fill-opacity:1;stroke:none;stroke-width:15;stroke-linecap:round;stroke-linejoin:round" cx="140" cy="160" r="7.5"/><circle style="fill:#333;fill-opacity:1;stroke:none;stroke-width:15;stroke-linecap:round;stroke-linejoin:round" cx="160" cy="160" r="7.5"/></svg>