<svg width="240" height="240" xmlns="http://www.w3.org/2000/svg"><path style="color:#000;fill:#333;stroke-linecap:round;stroke-linejoin:round;-inkscape-stroke:none" d="M120 32.5c-48.236 0-87.5 39.264-87.5 87.5s39.264 87.5 87.5 87.5 87.5-39.264 87.5-87.5-39.264-87.5-87.5-87.5zm0 15c40.13 0 72.5 32.37 72.5 72.5s-32.37 72.5-72.5 72.5-72.5-32.37-72.5-72.5S79.87 47.5 120 47.5z"/><path style="color:#000;fill:#333;stroke-linecap:round;-inkscape-stroke:none" d="M40 112.5a7.5 7.5 0 0 0-7.5 7.5 7.5 7.5 0 0 0 7.5 7.5h160a7.5 7.5 0 0 0 7.5-7.5 7.5 7.5 0 0 0-7.5-7.5z"/><path style="color:#000;fill:#333;-inkscape-stroke:none" d="M50 72.5v15h140v-15zm0 80v15h140v-15z"/><path style="color:#000;fill:#333;stroke-linecap:round;-inkscape-stroke:none" d="M117.629 32.885a7.5 7.5 0 0 0-4.338 3.761 7.5 7.5 0 0 0 3.355 10.063s8.41 4.12 17.497 15.477C143.228 73.543 152.5 91.666 152.5 120c0 28.333-9.272 46.457-18.357 57.814-9.086 11.358-17.497 15.477-17.497 15.477a7.5 7.5 0 0 0-3.355 10.063 7.5 7.5 0 0 0 10.063 3.355s11.59-5.88 22.503-19.523C156.772 173.543 167.5 151.666 167.5 120c0-31.667-10.728-53.543-21.643-67.186-10.914-13.642-22.503-19.523-22.503-19.523a7.5 7.5 0 0 0-5.725-.406z"/><path style="color:#000;fill:#333;-inkscape-stroke:none" d="M116.646 33.291s-11.59 5.88-22.503 19.523C83.228 66.457 72.5 88.334 72.5 120c0 31.667 10.728 53.543 21.643 67.186 10.914 13.642 22.503 19.523 22.503 19.523L120 200h7.5V40H120Zm-4.146 21.62V185.09c-2.09-2-4.34-4.398-6.643-7.276C96.772 166.457 87.5 148.334 87.5 120c0-28.333 9.272-46.457 18.357-57.814a74.088 74.088 0 0 1 6.643-7.276z"/></svg>