<svg width="240" height="240" xmlns="http://www.w3.org/2000/svg"><path style="color:#000;fill:#333;stroke-linecap:round;-inkscape-stroke:none" d="M80 32.5a7.5 7.5 0 0 0-7.5 7.5 7.5 7.5 0 0 0 7.5 7.5h80a7.5 7.5 0 0 0 7.5-7.5 7.5 7.5 0 0 0-7.5-7.5Zm-40 30a7.5 7.5 0 0 0-7.5 7.5 7.5 7.5 0 0 0 7.5 7.5h160a7.5 7.5 0 0 0 7.5-7.5 7.5 7.5 0 0 0-7.5-7.5Z"/><path style="color:#000;fill:#333;stroke-linecap:round;stroke-linejoin:round;-inkscape-stroke:none" d="M70 62.5a7.5 7.5 0 0 0-7.5 7.5v130a7.5 7.5 0 0 0 7.5 7.5h100a7.5 7.5 0 0 0 7.5-7.5V70a7.5 7.5 0 0 0-7.5-7.5Zm7.5 15h85v115h-85z"/></svg>