<svg width="240" height="240" xmlns="http://www.w3.org/2000/svg"><path style="color:#000;fill:#333;stroke-linecap:round;stroke-linejoin:round;-inkscape-stroke:none" d="M40 32.5a7.5 7.5 0 0 0-5.303 2.197 7.5 7.5 0 0 0 0 10.606L109.395 120l-74.698 74.697a7.5 7.5 0 0 0 0 10.606 7.5 7.5 0 0 0 10.606 0L120 130.605l74.697 74.698a7.5 7.5 0 0 0 10.606 0 7.5 7.5 0 0 0 0-10.606L130.605 120l74.698-74.697a7.5 7.5 0 0 0 0-10.606 7.5 7.5 0 0 0-10.606 0L120 109.395 45.303 34.697A7.5 7.5 0 0 0 40 32.5Z"/></svg>