<svg width="240" height="240" xmlns="http://www.w3.org/2000/svg"><path style="color:#000;fill:#333;stroke-linecap:round;stroke-linejoin:round;stroke-dashoffset:4;-inkscape-stroke:none" d="M40 32.5a7.5 7.5 0 0 0-7.5 7.5v120a7.5 7.5 0 0 0 7.5 7.5h40a7.5 7.5 0 0 0 7.5-7.5V87.5H160a7.5 7.5 0 0 0 7.5-7.5V40a7.5 7.5 0 0 0-7.5-7.5Zm7.5 15h105v25H80a7.5 7.5 0 0 0-7.5 7.5v72.5h-25z"/><path style="color:#000;fill:#333;stroke-linecap:round;stroke-linejoin:round;stroke-dashoffset:4;-inkscape-stroke:none" d="M80 72.5a7.5 7.5 0 0 0-7.5 7.5v120a7.5 7.5 0 0 0 7.5 7.5h60a7.5 7.5 0 0 0 7.5-7.5v-52.5H200a7.5 7.5 0 0 0 7.5-7.5V80a7.5 7.5 0 0 0-7.5-7.5Zm7.5 15h105v45H140a7.5 7.5 0 0 0-7.5 7.5v52.5h-45z"/><path style="color:#000;fill:#333;stroke-linecap:round;stroke-linejoin:round;-inkscape-stroke:none" d="M200 132.5a7.5 7.5 0 0 0-5.303 2.197l-60 60a7.5 7.5 0 0 0 0 10.606 7.5 7.5 0 0 0 10.606 0l60-60a7.5 7.5 0 0 0 0-10.606A7.5 7.5 0 0 0 200 132.5Z"/></svg>