<svg width="240" height="240" xmlns="http://www.w3.org/2000/svg"><path style="color:#000;fill:#333;stroke-linecap:round;-inkscape-stroke:none" d="M71.47 32.646a7.5 7.5 0 0 0-5.63 1.114 7.5 7.5 0 0 0-2.08 10.4L110.986 115 83.76 155.84a7.5 7.5 0 0 0 2.08 10.4 7.5 7.5 0 0 0 10.4-2.08L120 128.52l23.76 35.64a7.5 7.5 0 0 0 10.4 2.08 7.5 7.5 0 0 0 2.08-10.4L129.014 115l47.226-70.84a7.5 7.5 0 0 0-2.08-10.4 7.5 7.5 0 0 0-10.4 2.08L120 101.48 76.24 35.84a7.5 7.5 0 0 0-4.77-3.194z"/><path style="color:#000;fill:#333;stroke-linecap:round;stroke-linejoin:round;-inkscape-stroke:none" d="M160 152.5c-15.099 0-27.5 12.401-27.5 27.5s12.401 27.5 27.5 27.5 27.5-12.401 27.5-27.5-12.401-27.5-27.5-27.5zm0 15c6.992 0 12.5 5.508 12.5 12.5s-5.508 12.5-12.5 12.5-12.5-5.508-12.5-12.5 5.508-12.5 12.5-12.5zM80 152.5c-15.099 0-27.5 12.401-27.5 27.5s12.401 27.5 27.5 27.5 27.5-12.401 27.5-27.5-12.401-27.5-27.5-27.5zm0 15c6.992 0 12.5 5.508 12.5 12.5s-5.508 12.5-12.5 12.5-12.5-5.508-12.5-12.5 5.508-12.5 12.5-12.5z"/></svg>