<svg width="240" height="240" xmlns="http://www.w3.org/2000/svg"><path style="color:#000;fill:#333;stroke-linecap:round;stroke-linejoin:round;-inkscape-stroke:none" d="M180 72.5a7.5 7.5 0 0 0-7.5 7.5v72.5H60a7.5 7.5 0 0 0-7.5 7.5 7.5 7.5 0 0 0 7.5 7.5h120a7.5 7.5 0 0 0 7.5-7.5V80a7.5 7.5 0 0 0-7.5-7.5Z"/><path style="color:#000;fill:#333;stroke-linecap:round;stroke-linejoin:round;-inkscape-stroke:none" d="M80 132.5a7.5 7.5 0 0 0-5.303 2.197l-20 20a7.5 7.5 0 0 0 0 10.606l20 20a7.5 7.5 0 0 0 10.606 0 7.5 7.5 0 0 0 0-10.606L70.605 160l14.698-14.697a7.5 7.5 0 0 0 0-10.606A7.5 7.5 0 0 0 80 132.5ZM40 32.5a7.5 7.5 0 0 0-5.303 2.197 7.5 7.5 0 0 0 0 10.606l160 160a7.5 7.5 0 0 0 10.606 0 7.5 7.5 0 0 0 0-10.606l-160-160A7.5 7.5 0 0 0 40 32.5Z"/></svg>