<svg width="240" height="240" xmlns="http://www.w3.org/2000/svg"><path style="color:#000;fill:#333;stroke-linecap:round;stroke-linejoin:round;stroke-dashoffset:4;-inkscape-stroke:none" d="M90 32.5c-20.645 0-37.5 16.855-37.5 37.5v100c0 20.645 16.855 37.5 37.5 37.5h60c20.645 0 37.5-16.855 37.5-37.5V70c0-20.645-16.855-37.5-37.5-37.5Zm0 15h60c12.595 0 22.5 9.905 22.5 22.5v100c0 12.595-9.905 22.5-22.5 22.5H90c-12.595 0-22.5-9.905-22.5-22.5V70c0-12.595 9.905-22.5 22.5-22.5Z"/><path style="color:#000;fill:#333;stroke-linecap:round;stroke-linejoin:round;stroke-dashoffset:4;-inkscape-stroke:none" d="M60 72.5a7.5 7.5 0 0 0-7.5 7.5v120a7.5 7.5 0 0 0 7.5 7.5h120a7.5 7.5 0 0 0 7.5-7.5V80a7.5 7.5 0 0 0-7.5-7.5Zm7.5 15h105v105h-105z"/></svg>