<svg width="240" height="240" xmlns="http://www.w3.org/2000/svg"><path style="color:#000;fill:#333;stroke-linecap:round;-inkscape-stroke:none" d="M132.643 36.076c-20.3.482-37.862 3.397-52.416 8.028-14.555 4.63-26.14 10.967-34.41 18.699C37.545 70.534 32.5 80 32.5 90c0 7.875 3.025 14.98 8.332 19.36 5.307 4.378 11.946 6.082 18.975 6.704 14.057 1.246 30.862-1.8 47.808-4.939 16.947-3.138 33.975-6.451 46.377-6.594 6.201-.071 11.149.725 14.067 2.026 2.917 1.3 3.942 2.366 4.666 5.261.875 3.502.45 5.053-.553 6.696-1.003 1.642-3.202 3.57-6.885 5.379-7.366 3.618-19.838 6.244-32.941 8.74-13.104 2.496-26.871 4.938-38.282 9.853-5.705 2.458-10.926 5.572-14.96 10.108A26.247 26.247 0 0 0 72.5 170c0 8.284 2.618 15.686 8.004 20.443 5.386 4.758 12.296 6.559 19.914 7.409 15.236 1.7 34.968-.352 59.582-.352a7.5 7.5 0 0 0 7.5-7.5 7.5 7.5 0 0 0-7.5-7.5c-25.386 0-45.654 1.812-57.918.443-6.132-.684-9.847-2.15-11.648-3.742C88.632 177.61 87.5 175.58 87.5 170c0-3.281.869-5.255 2.81-7.438 1.942-2.182 5.237-4.381 9.688-6.298 8.902-3.835 22.01-6.393 35.156-8.897 13.147-2.504 26.3-4.878 36.746-10.01 5.224-2.565 9.978-5.95 13.077-11.027 3.098-5.076 3.923-11.65 2.298-18.148-1.776-7.105-7.001-12.602-13.107-15.325-6.106-2.722-12.955-3.41-20.348-3.326-14.785.17-32.132 3.732-48.935 6.844-16.803 3.112-33.124 5.69-43.754 4.748-5.315-.47-8.91-1.814-10.752-3.334C48.537 96.27 47.5 94.625 47.5 90c0-5 2.454-10.534 8.559-16.24 6.104-5.706 15.769-11.245 28.714-15.364 25.891-8.238 64.746-10.844 113.756-1.042a7.5 7.5 0 0 0 8.825-5.883 7.5 7.5 0 0 0-5.883-8.825c-25.495-5.099-48.53-7.051-68.828-6.57z"/></svg>