<svg width="240" height="240" xmlns="http://www.w3.org/2000/svg"><path style="color:#000;fill:#333;stroke-linecap:round;stroke-linejoin:round;-inkscape-stroke:none" d="M120 32.5c-22.5 0-35.815 12.358-41.709 24.146C72.397 68.436 72.5 80 72.5 80a7.5 7.5 0 0 0 7.5 7.5 7.5 7.5 0 0 0 7.5-7.5s.103-8.435 4.209-16.646C95.815 55.142 102.5 47.5 120 47.5s24.185 7.642 28.291 15.854C152.397 71.564 152.5 80 152.5 80c0 17.5-7.803 24.697-17.803 34.697-18.047 18.047-22.088 44.024-22.088 44.024a7.5 7.5 0 0 0 6.112 8.67 7.5 7.5 0 0 0 8.67-6.112s4.337-22.401 17.912-35.976c10-10 22.197-22.803 22.197-45.303 0 0 .103-11.565-5.791-23.354C155.815 44.858 142.5 32.5 120 32.5Z"/><circle style="fill:#333;stroke-width:15;stroke-linecap:round;stroke-linejoin:round" cx="120" cy="190" r="7.5"/></svg>