<svg width="240" height="240" xmlns="http://www.w3.org/2000/svg"><path style="color:#000;fill:#333;stroke-linecap:round;stroke-linejoin:round;-inkscape-stroke:none" d="M116.646 32.56c-2.691.105-5.4.335-8.117.694C65.074 39 32.5 76.166 32.5 120a7.5 7.5 0 0 0 7.5 7.5 7.5 7.5 0 0 0 7.5-7.5c0-36.425 26.885-67.1 62.996-71.875 36.123-4.776 70.067 17.873 79.522 53.063 9.454 35.19-8.568 71.8-42.221 85.771-33.653 13.97-72.304.887-90.55-30.652a7.5 7.5 0 0 0-10.249-2.737 7.5 7.5 0 0 0-2.736 10.248c21.958 37.954 68.788 53.806 109.285 36.994 40.498-16.811 62.334-61.168 50.957-103.515-10.666-39.7-47.48-66.303-87.858-64.736Z"/><path style="color:#000;fill:#333;stroke-linecap:round;stroke-linejoin:round;-inkscape-stroke:none" d="M120 62.5a7.5 7.5 0 0 0-7.5 7.5v50a7.5 7.5 0 0 0 7.5 7.5h30a7.5 7.5 0 0 0 7.5-7.5 7.5 7.5 0 0 0-7.5-7.5h-22.5V70a7.5 7.5 0 0 0-7.5-7.5Z"/><path style="color:#000;fill:#333;stroke-linecap:round;-inkscape-stroke:none" d="M62.371 102.885a7.5 7.5 0 0 0-5.725.406l-20 10a7.5 7.5 0 0 0-3.355 10.063 7.5 7.5 0 0 0 10.063 3.355l20-10a7.5 7.5 0 0 0 3.355-10.063 7.5 7.5 0 0 0-4.338-3.761z"/></svg>