<svg width="240" height="240" xmlns="http://www.w3.org/2000/svg"><path style="color:#000;fill:#333;stroke-linecap:round;stroke-linejoin:round;-inkscape-stroke:none" d="M120 32.5a7.5 7.5 0 0 0-7.5 7.5v50a7.5 7.5 0 0 0 7.5 7.5 7.5 7.5 0 0 0 7.5-7.5V40a7.5 7.5 0 0 0-7.5-7.5Zm50 50a7.5 7.5 0 0 0-5.303 2.197 7.5 7.5 0 0 0 0 10.606l17.198 17.197H40a7.5 7.5 0 0 0-7.5 7.5 7.5 7.5 0 0 0 7.5 7.5h141.895l-17.198 17.197a7.5 7.5 0 0 0 0 10.606 7.5 7.5 0 0 0 10.606 0l30-30a7.5 7.5 0 0 0 2.105-5.082 7.5 7.5 0 0 0 .092-.221 7.5 7.5 0 0 0-.092-.58 7.5 7.5 0 0 0-.183-1.156 7.5 7.5 0 0 0-.362-1.114 7.5 7.5 0 0 0-.523-1.025 7.5 7.5 0 0 0-.695-.957 7.5 7.5 0 0 0-.342-.47l-30-30A7.5 7.5 0 0 0 170 82.5Zm-50 60a7.5 7.5 0 0 0-7.5 7.5v50a7.5 7.5 0 0 0 7.5 7.5 7.5 7.5 0 0 0 7.5-7.5v-50a7.5 7.5 0 0 0-7.5-7.5z"/></svg>