<svg width="240" height="240" xmlns="http://www.w3.org/2000/svg"><path style="color:#000;fill:#333;stroke-linecap:round;stroke-linejoin:round;-inkscape-stroke:none" d="M172.342 24.035c-15.261-.738-32.389 5.407-47.645 20.662l-20 20a7.5 7.5 0 0 0 0 10.606 7.5 7.5 0 0 0 10.606 0l20-20c22.878-22.879 44.84-19.554 56.894-7.5 12.054 12.053 15.379 34.016-7.5 56.894l-20 20a7.5 7.5 0 0 0 0 10.606 7.5 7.5 0 0 0 10.606 0l20-20c27.121-27.122 25.446-60.16 7.5-78.106-7.852-7.851-18.591-12.588-30.461-13.162zM160 72.5a7.5 7.5 0 0 0-5.303 2.197l-80 80a7.5 7.5 0 0 0 0 10.606 7.5 7.5 0 0 0 10.606 0l80-80a7.5 7.5 0 0 0 0-10.606A7.5 7.5 0 0 0 160 72.5Zm-90 30a7.5 7.5 0 0 0-5.303 2.197l-20 20c-27.121 27.122-25.446 60.16-7.5 78.106 17.947 17.946 50.984 19.621 78.106-7.5l20-20a7.5 7.5 0 0 0 0-10.606 7.5 7.5 0 0 0-10.606 0l-20 20c-22.878 22.879-44.84 19.554-56.894 7.5-12.054-12.053-15.379-34.016 7.5-56.894l20-20a7.5 7.5 0 0 0 0-10.606A7.5 7.5 0 0 0 70 102.5Z"/></svg>