<svg width="240" height="240" xmlns="http://www.w3.org/2000/svg"><path style="color:#000;fill:#333;stroke-linecap:round;stroke-linejoin:round;-inkscape-stroke:none" d="M40 32.5a7.5 7.5 0 0 0-7.5 7.5v40a7.5 7.5 0 0 0 7.5 7.5 7.5 7.5 0 0 0 7.5-7.5V47.5h145V80a7.5 7.5 0 0 0 7.5 7.5 7.5 7.5 0 0 0 7.5-7.5V40a7.5 7.5 0 0 0-7.5-7.5Zm40 40a7.5 7.5 0 0 0-7.5 7.5 7.5 7.5 0 0 0 7.5 7.5h32.5V160a7.5 7.5 0 0 0 7.5 7.5 7.5 7.5 0 0 0 7.5-7.5V87.5H160a7.5 7.5 0 0 0 7.5-7.5 7.5 7.5 0 0 0-7.5-7.5h-40zm-40 80a7.5 7.5 0 0 0-7.5 7.5v40a7.5 7.5 0 0 0 7.5 7.5h160a7.5 7.5 0 0 0 7.5-7.5v-40a7.5 7.5 0 0 0-7.5-7.5 7.5 7.5 0 0 0-7.5 7.5v32.5h-145V160a7.5 7.5 0 0 0-7.5-7.5Z"/></svg>