<svg width="240" height="240" xmlns="http://www.w3.org/2000/svg"><path style="color:#000;fill:#333;stroke-linecap:round;stroke-linejoin:round;-inkscape-stroke:none" d="M120 32.5a7.5 7.5 0 0 0-5.303 2.197l-40 40a7.5 7.5 0 0 0 0 10.606 7.5 7.5 0 0 0 10.606 0L112.5 58.105V160a7.5 7.5 0 0 0 7.5 7.5 7.5 7.5 0 0 0 7.5-7.5V58.105l27.197 27.198a7.5 7.5 0 0 0 10.606 0 7.5 7.5 0 0 0 0-10.606l-40-40a7.5 7.5 0 0 0-.221-.092A7.5 7.5 0 0 0 120 32.5Zm-80 80a7.5 7.5 0 0 0-7.5 7.5v80a7.5 7.5 0 0 0 7.5 7.5h160a7.5 7.5 0 0 0 7.5-7.5v-80a7.5 7.5 0 0 0-7.5-7.5h-40a7.5 7.5 0 0 0-7.5 7.5 7.5 7.5 0 0 0 7.5 7.5h32.5v65h-145v-65H80a7.5 7.5 0 0 0 7.5-7.5 7.5 7.5 0 0 0-7.5-7.5Z"/></svg>