<svg width="240" height="240" xmlns="http://www.w3.org/2000/svg"><path style="color:#000;fill:#000;stroke-width:9.375;stroke-linecap:round;stroke-linejoin:round;-inkscape-stroke:none" d="M50 135.313A4.688 4.688 0 0 0 45.312 140v50A4.688 4.688 0 0 0 50 194.688h50a4.688 4.688 0 0 0 4.688-4.688v-50a4.688 4.688 0 0 0-4.688-4.688H50z"/><path style="color:#000;fill:#000;stroke-linecap:round;-inkscape-stroke:none" d="M160 32.5a7.5 7.5 0 0 0-7.5 7.5v25.986L134.16 53.76a7.5 7.5 0 0 0-10.4 2.08 7.5 7.5 0 0 0 2.08 10.4L146.48 80l-20.64 13.76a7.5 7.5 0 0 0-2.08 10.4 7.5 7.5 0 0 0 10.4 2.08l18.34-12.226V120a7.5 7.5 0 0 0 7.5 7.5 7.5 7.5 0 0 0 7.5-7.5V94.014l18.34 12.226a7.5 7.5 0 0 0 10.4-2.08 7.5 7.5 0 0 0-2.08-10.4L173.52 80l20.64-13.76a7.5 7.5 0 0 0 2.08-10.4 7.5 7.5 0 0 0-10.4-2.08L167.5 65.986V40a7.5 7.5 0 0 0-7.5-7.5Z"/></svg>