<svg width="240" height="240" xmlns="http://www.w3.org/2000/svg"><path style="color:#000;fill:#333;stroke-linecap:round;stroke-linejoin:round;-inkscape-stroke:none" d="M60 52.5a7.5 7.5 0 0 0-7.5 7.5v120a7.5 7.5 0 0 0 7.5 7.5 7.5 7.5 0 0 0 7.5-7.5V67.5H140a7.5 7.5 0 0 0 7.5-7.5 7.5 7.5 0 0 0-7.5-7.5Z"/><path style="color:#000;fill:#333;stroke-linecap:round;stroke-linejoin:round;-inkscape-stroke:none" d="M40 152.5a7.5 7.5 0 0 0-5.303 2.197 7.5 7.5 0 0 0 0 10.606l20 20a7.5 7.5 0 0 0 10.606 0l20-20a7.5 7.5 0 0 0 0-10.606 7.5 7.5 0 0 0-10.606 0L60 169.395l-14.697-14.698A7.5 7.5 0 0 0 40 152.5ZM180 52.5a7.5 7.5 0 0 0-7.5 7.5v112.5H100a7.5 7.5 0 0 0-7.5 7.5 7.5 7.5 0 0 0 7.5 7.5h80a7.5 7.5 0 0 0 7.5-7.5V60a7.5 7.5 0 0 0-7.5-7.5Z"/><path style="color:#000;fill:#333;stroke-linecap:round;stroke-linejoin:round;-inkscape-stroke:none" d="M180 52.5a7.5 7.5 0 0 0-5.303 2.197l-20 20a7.5 7.5 0 0 0 0 10.606 7.5 7.5 0 0 0 10.606 0L180 70.605l14.697 14.698a7.5 7.5 0 0 0 10.606 0 7.5 7.5 0 0 0 0-10.606l-20-20A7.5 7.5 0 0 0 180 52.5Z"/></svg>