<svg width="240" height="240" xmlns="http://www.w3.org/2000/svg"><path style="color:#000;fill:#333;stroke-linecap:round;stroke-linejoin:round;-inkscape-stroke:none" d="M60 92.5a7.5 7.5 0 0 0-7.5 7.5v80a7.5 7.5 0 0 0 7.5 7.5 7.5 7.5 0 0 0 7.5-7.5v-72.5H110a7.5 7.5 0 0 0 7.5-7.5 7.5 7.5 0 0 0-7.5-7.5z"/><path style="color:#000;fill:#333;stroke-linecap:round;stroke-linejoin:round;-inkscape-stroke:none" d="M140 92.5a7.5 7.5 0 0 0-7.5 7.5v72.5H90a7.5 7.5 0 0 0-7.5 7.5 7.5 7.5 0 0 0 7.5 7.5h50a7.5 7.5 0 0 0 7.5-7.5v-80a7.5 7.5 0 0 0-7.5-7.5Zm-100 60a7.5 7.5 0 0 0-5.303 2.197 7.5 7.5 0 0 0 0 10.606l20 20a7.5 7.5 0 0 0 10.606 0l20-20a7.5 7.5 0 0 0 0-10.606 7.5 7.5 0 0 0-10.606 0L60 169.395l-14.697-14.698A7.5 7.5 0 0 0 40 152.5Z"/><path style="color:#000;fill:#333;stroke-linecap:round;stroke-linejoin:round;-inkscape-stroke:none" d="M100 52.5a7.5 7.5 0 0 0-7.5 7.5v40a7.5 7.5 0 0 0 7.5 7.5 7.5 7.5 0 0 0 7.5-7.5V67.5H150a7.5 7.5 0 0 0 7.5-7.5 7.5 7.5 0 0 0-7.5-7.5Zm40 40a7.5 7.5 0 0 0-5.303 2.197l-20 20a7.5 7.5 0 0 0 0 10.606 7.5 7.5 0 0 0 10.606 0L140 110.605l14.697 14.698a7.5 7.5 0 0 0 10.606 0 7.5 7.5 0 0 0 0-10.606l-20-20A7.5 7.5 0 0 0 140 92.5Z"/><path style="color:#000;fill:#333;stroke-linecap:round;stroke-linejoin:round;-inkscape-stroke:none" d="M180 52.5a7.5 7.5 0 0 0-7.5 7.5v72.5H140a7.5 7.5 0 0 0-7.5 7.5 7.5 7.5 0 0 0 7.5 7.5h40a7.5 7.5 0 0 0 7.5-7.5V60a7.5 7.5 0 0 0-7.5-7.5Z"/><path style="color:#000;fill:#333;stroke-linecap:round;stroke-linejoin:round;-inkscape-stroke:none" d="M180 52.5a7.5 7.5 0 0 0-5.303 2.197l-20 20a7.5 7.5 0 0 0 0 10.606 7.5 7.5 0 0 0 10.606 0L180 70.605l14.697 14.698a7.5 7.5 0 0 0 10.606 0 7.5 7.5 0 0 0 0-10.606l-20-20A7.5 7.5 0 0 0 180 52.5Z"/></svg>