<svg width="240" height="240" xmlns="http://www.w3.org/2000/svg"><path style="color:#000;fill:#333;stroke-linecap:round;stroke-linejoin:round;-inkscape-stroke:none" d="M40 32.5a7.5 7.5 0 0 0-7.5 7.5v100a7.5 7.5 0 0 0 7.5 7.5h160a7.5 7.5 0 0 0 7.5-7.5V40a7.5 7.5 0 0 0-7.5-7.5Zm7.5 15h145v85h-145z"/><path style="color:#000;fill:#333;stroke-linecap:round;stroke-linejoin:round;-inkscape-stroke:none" d="M120 132.5a7.5 7.5 0 0 0-7.5 7.5v60a7.5 7.5 0 0 0 7.5 7.5 7.5 7.5 0 0 0 7.5-7.5v-60a7.5 7.5 0 0 0-7.5-7.5z"/><path style="color:#000;fill:#333;stroke-linecap:round;stroke-linejoin:round;-inkscape-stroke:none" d="M60 192.5a7.5 7.5 0 0 0-7.5 7.5 7.5 7.5 0 0 0 7.5 7.5h120a7.5 7.5 0 0 0 7.5-7.5 7.5 7.5 0 0 0-7.5-7.5z"/></svg>