<svg width="240" height="240" xmlns="http://www.w3.org/2000/svg"><path style="color:#000;fill:#333;stroke-linecap:round;stroke-linejoin:round;-inkscape-stroke:none" d="M120 32.5c-48.236 0-87.5 39.264-87.5 87.5s39.264 87.5 87.5 87.5 87.5-39.264 87.5-87.5-39.264-87.5-87.5-87.5zm0 15c40.13 0 72.5 32.37 72.5 72.5s-32.37 72.5-72.5 72.5-72.5-32.37-72.5-72.5S79.87 47.5 120 47.5z"/><path style="color:#000;fill:#333;stroke-linecap:round;-inkscape-stroke:none" d="M180 172.5a7.5 7.5 0 0 0-5.303 2.197 7.5 7.5 0 0 0 0 10.606l20 20a7.5 7.5 0 0 0 10.606 0 7.5 7.5 0 0 0 0-10.606l-20-20A7.5 7.5 0 0 0 180 172.5Z"/></svg>