<svg width="240" height="240" xmlns="http://www.w3.org/2000/svg"><path style="fill:none;stroke:#333;stroke-width:15;stroke-linecap:round;stroke-linejoin:round;stroke-opacity:1;stroke-miterlimit:4;stroke-dasharray:none" d="M120 40 50 80v80l70 40 70-40V80l-70-40"/><path style="color:#000;fill:#333;stroke-linecap:round;stroke-linejoin:round;-inkscape-stroke:none" d="M118.027 32.764a7.5 7.5 0 0 0-.775.601 7.5 7.5 0 0 0-.973.123l-70 40A7.5 7.5 0 0 0 42.5 80v80a7.5 7.5 0 0 0 3.78 6.512l70 40a7.5 7.5 0 0 0 7.44 0l70-40A7.5 7.5 0 0 0 197.5 160V80a7.5 7.5 0 0 0-3.78-6.512l-70-40a7.5 7.5 0 0 0-.972-.123 7.5 7.5 0 0 0-2.748-.35 7.5 7.5 0 0 0-1.973-.251ZM120 48.639l62.5 35.713v71.296L120 191.361l-62.5-35.713V84.352Z"/></svg>