<svg width="240" height="240" xmlns="http://www.w3.org/2000/svg"><path style="color:#000;fill:#333;stroke-linecap:round;stroke-linejoin:round;-inkscape-stroke:none" d="M80 92.5a7.5 7.5 0 0 0-7.5 7.5v100a7.5 7.5 0 0 0 7.5 7.5h120a7.5 7.5 0 0 0 7.5-7.5V100a7.5 7.5 0 0 0-7.5-7.5Zm7.5 15h105v85h-105z"/><path style="color:#000;fill:#333;stroke-linecap:round;stroke-linejoin:round;-inkscape-stroke:none" d="M100 32.5c-37.19 0-67.5 30.31-67.5 67.5s30.31 67.5 67.5 67.5 67.5-30.31 67.5-67.5-30.31-67.5-67.5-67.5zm0 15c29.084 0 52.5 23.416 52.5 52.5s-23.416 52.5-52.5 52.5-52.5-23.416-52.5-52.5S70.916 47.5 100 47.5z"/></svg>