<svg width="240" height="240" xmlns="http://www.w3.org/2000/svg"><path style="color:#000;fill:#333;stroke-linecap:round;stroke-linejoin:round;stroke-dasharray:5,10;-inkscape-stroke:none" d="M120.83 97.516c-1.87-.069-3.75.092-5.586.488a2.5 2.5 0 0 0-1.916 2.97 2.5 2.5 0 0 0 2.97 1.919 17.613 17.613 0 0 1 4.35-.381 2.5 2.5 0 0 0 2.59-2.407 2.5 2.5 0 0 0-2.408-2.59zm10.68 3.148a2.5 2.5 0 0 0-3.428.867 2.5 2.5 0 0 0 .87 3.428 17.56 17.56 0 0 1 3.429 2.674 2.5 2.5 0 0 0 3.537.027 2.5 2.5 0 0 0 .025-3.535c-.152-.155-.29-.288-.412-.404a2.5 2.5 0 0 0-.008-.008 22.537 22.537 0 0 0-4.013-3.05zm-24.41 1.713a2.5 2.5 0 0 0-1.817.603 22.587 22.587 0 0 0-3.754 4.168 2.5 2.5 0 0 0 .623 3.48 2.5 2.5 0 0 0 3.48-.622 17.602 17.602 0 0 1 2.923-3.244 2.5 2.5 0 0 0 .254-3.528 2.5 2.5 0 0 0-1.71-.857zm31.402 9.62a2.5 2.5 0 0 0-1.697 3.099c.379 1.297.603 2.646.672 4.002l.01.224.004.076a2.5 2.5 0 0 0 .134.3 2.5 2.5 0 0 0-.125.302c0 1.461-.18 2.922-.54 4.33a2.5 2.5 0 0 0 1.806 3.041 2.5 2.5 0 0 0 3.039-1.805A22.51 22.51 0 0 0 142.5 120a2.5 2.5 0 0 0-.123-.295 2.5 2.5 0 0 0 .11-.465l-.003-.092a2.5 2.5 0 0 0-.002-.033l-.011-.256a2.5 2.5 0 0 0 0-.015 22.41 22.41 0 0 0-.868-5.15 2.5 2.5 0 0 0-3.101-1.698zm-38.12 3.362a2.5 2.5 0 0 0-2.753 2.217l-.012.112a2.5 2.5 0 0 0-.002.03l-.025.253a2.5 2.5 0 0 0 0 .017 22.72 22.72 0 0 0 .135 5.194 2.5 2.5 0 0 0 2.826 2.125 2.5 2.5 0 0 0 2.123-2.827 17.76 17.76 0 0 1-.104-4.052l.02-.221.011-.094a2.5 2.5 0 0 0-2.218-2.754zm3.954 14.141a2.5 2.5 0 0 0-1.854.475 2.5 2.5 0 0 0-.503 3.498 22.604 22.604 0 0 0 3.892 4.039 2.5 2.5 0 0 0 3.516-.375 2.5 2.5 0 0 0-.375-3.516 17.614 17.614 0 0 1-3.03-3.144 2.5 2.5 0 0 0-1.646-.977Zm32.004 2.303a2.5 2.5 0 0 0-3.533.125 17.589 17.589 0 0 1-3.35 2.799 2.5 2.5 0 0 0-.75 3.455 2.5 2.5 0 0 0 3.455.752 22.573 22.573 0 0 0 4.303-3.598 2.5 2.5 0 0 0-.125-3.533zm-19.445 5.422a2.5 2.5 0 0 0-2.915 2.004 2.5 2.5 0 0 0 2.004 2.914l.02.004a2.5 2.5 0 0 0 .031.006l.248.04a2.5 2.5 0 0 0 .016.005c1.75.29 3.53.37 5.297.246a2.5 2.5 0 0 0 2.316-2.67 2.5 2.5 0 0 0-2.67-2.317 17.685 17.685 0 0 1-4.121-.193h-.006l-.217-.037z"/><path style="color:#000;fill:#333;stroke-linecap:round;stroke-linejoin:round;stroke-dasharray:5,15;-inkscape-stroke:none" d="M118.494 87.535a2.5 2.5 0 0 0-2.38 2.611 2.5 2.5 0 0 0 2.61 2.383 27.707 27.707 0 0 1 4.579.168 2.5 2.5 0 0 0 2.779-2.183 2.5 2.5 0 0 0-2.184-2.782 32.686 32.686 0 0 0-5.404-.197zm-13.49 4.399a2.5 2.5 0 0 0-1.89.293 32.557 32.557 0 0 0-4.372 3.189 2.5 2.5 0 0 0-.254 3.525 2.5 2.5 0 0 0 3.526.254 27.55 27.55 0 0 1 3.699-2.697 2.5 2.5 0 0 0 .836-3.436 2.5 2.5 0 0 0-1.545-1.128zm32.023 1.185a2.5 2.5 0 0 0-1.623 1.014 2.5 2.5 0 0 0 .58 3.486 27.547 27.547 0 0 1 3.489 2.965 2.5 2.5 0 0 0 3.537.006 2.5 2.5 0 0 0 .006-3.537 32.54 32.54 0 0 0-4.125-3.5 2.5 2.5 0 0 0-1.864-.434zm-44.256 14.027a2.5 2.5 0 0 0-3.218 1.463 32.142 32.142 0 0 0-1.465 5.213 2.5 2.5 0 0 0 1.982 2.928 2.5 2.5 0 0 0 2.926-1.982c.289-1.5.703-2.976 1.238-4.403a2.5 2.5 0 0 0-1.463-3.219zm55.333 2.047a2.5 2.5 0 0 0-1.698 3.1c.428 1.463.73 2.965.906 4.482a2.5 2.5 0 0 0 1.561 1.852A2.5 2.5 0 0 0 147.5 120c0 1.53-.125 3.06-.377 4.564a2.5 2.5 0 0 0 2.053 2.88 2.5 2.5 0 0 0 2.879-2.053c.298-1.783.445-3.588.445-5.391a2.5 2.5 0 0 0-.938-1.854 2.5 2.5 0 0 0 .717-1.947 32.203 32.203 0 0 0-1.074-5.308 2.5 2.5 0 0 0-3.101-1.698zm-57.452 17.54a2.5 2.5 0 0 0-1.625 3.14 32.14 32.14 0 0 0 2.07 5.004 2.5 2.5 0 0 0 3.37 1.074 2.5 2.5 0 0 0 1.074-3.367 27.164 27.164 0 0 1-1.748-4.227 2.5 2.5 0 0 0-3.14-1.625zm54.473 9.853a2.5 2.5 0 0 0-3.51.416 27.661 27.661 0 0 1-3.123 3.352 2.5 2.5 0 0 0-.168 3.53 2.5 2.5 0 0 0 3.533.169 32.622 32.622 0 0 0 3.686-3.957 2.5 2.5 0 0 0-.418-3.51zm-40.55 6.184a2.5 2.5 0 0 0-3.473.662 2.5 2.5 0 0 0 .662 3.472 32.306 32.306 0 0 0 4.716 2.659 2.5 2.5 0 0 0 3.315-1.235 2.5 2.5 0 0 0-1.234-3.312 27.313 27.313 0 0 1-3.987-2.246zm21.902 3.962a27.294 27.294 0 0 1-4.522.7 2.5 2.5 0 0 0-2.32 2.666 2.5 2.5 0 0 0 2.666 2.322 32.294 32.294 0 0 0 5.351-.826 2.5 2.5 0 0 0 1.842-3.018 2.5 2.5 0 0 0-3.017-1.844z"/><path style="color:#000;fill:#333;stroke-linecap:round;stroke-linejoin:round;stroke-dasharray:5,30;-inkscape-stroke:none" d="M129.756 68.406a2.5 2.5 0 0 0-2.918 1.998 2.5 2.5 0 0 0 1.998 2.916c1.554.291 3.094.662 4.611 1.11a2.5 2.5 0 0 0 3.106-1.69 2.5 2.5 0 0 0-1.69-3.105 51.469 51.469 0 0 0-5.107-1.229zm-30.83 3.496a51.773 51.773 0 0 0-4.697 2.35 2.5 2.5 0 0 0-.946 3.406 2.5 2.5 0 0 0 3.408.946 46.759 46.759 0 0 1 4.243-2.124 2.5 2.5 0 0 0 1.285-3.293 2.5 2.5 0 0 0-3.293-1.285zm60.078 14.018a2.5 2.5 0 0 0-1.832.553 2.5 2.5 0 0 0-.352 3.517 46.923 46.923 0 0 1 2.815 3.82 2.5 2.5 0 0 0 3.463.708 2.5 2.5 0 0 0 .707-3.465 51.921 51.921 0 0 0-3.114-4.229 2.5 2.5 0 0 0-1.687-.904zM74.34 95.523a2.5 2.5 0 0 0-1.44 1.26 51.48 51.48 0 0 0-2.086 4.822 2.5 2.5 0 0 0 1.47 3.215 2.5 2.5 0 0 0 3.216-1.468A46.442 46.442 0 0 1 77.383 99a2.5 2.5 0 0 0-1.133-3.35 2.5 2.5 0 0 0-1.91-.127ZM170 117.5a2.5 2.5 0 0 0-2.5 2.5c0 1.587-.077 3.17-.234 4.742a2.5 2.5 0 0 0 2.238 2.737 2.5 2.5 0 0 0 2.736-2.239c.175-1.744.26-3.493.26-5.24a2.5 2.5 0 0 0-2.5-2.5zm-99.15 12.057a2.5 2.5 0 0 0-1.832 3.023c.417 1.7.922 3.38 1.511 5.031a2.5 2.5 0 0 0 3.194 1.514 2.5 2.5 0 0 0 1.515-3.193 46.53 46.53 0 0 1-1.365-4.543 2.5 2.5 0 0 0-3.023-1.832zm89.007 20.738a2.5 2.5 0 0 0-3.523.3 47.342 47.342 0 0 1-3.236 3.475 2.5 2.5 0 0 0-.053 3.535 2.5 2.5 0 0 0 3.535.053 52.304 52.304 0 0 0 3.578-3.84 2.5 2.5 0 0 0-.3-3.523zm-69.66 7.672a2.5 2.5 0 0 0-1.633.998 2.5 2.5 0 0 0 .55 3.492 52.097 52.097 0 0 0 4.392 2.875 2.5 2.5 0 0 0 3.42-.896 2.5 2.5 0 0 0-.899-3.42 47.101 47.101 0 0 1-3.97-2.6 2.5 2.5 0 0 0-1.86-.45zm37.887 8.847c-1.558.27-3.13.458-4.709.567a2.5 2.5 0 0 0-2.322 2.666 2.5 2.5 0 0 0 2.666 2.322 51.6 51.6 0 0 0 5.215-.627 2.5 2.5 0 0 0 2.039-2.888 2.5 2.5 0 0 0-2.889-2.04z"/><path style="color:#000;fill:#333;stroke-linecap:round;stroke-linejoin:round;stroke-dasharray:3,72;-inkscape-stroke:none" d="M120.975 38.506a82.065 82.065 0 0 0-3.055.02 1.5 1.5 0 0 0-1.463 1.536 1.5 1.5 0 0 0 1.537 1.463 79.074 79.074 0 0 1 2.944-.02 1.5 1.5 0 0 0 1.519-1.482 1.5 1.5 0 0 0-1.482-1.517zm62.466 31.021a1.5 1.5 0 0 0-1.107.303 1.5 1.5 0 0 0-.266 2.104 77.396 77.396 0 0 1 1.76 2.359 1.5 1.5 0 0 0 2.094.346 1.5 1.5 0 0 0 .346-2.094 80.329 80.329 0 0 0-1.829-2.45 1.5 1.5 0 0 0-.998-.568zm-127.562.866a1.5 1.5 0 0 0-.99.582 79.375 79.375 0 0 0-1.795 2.474 1.5 1.5 0 0 0 .375 2.088 1.5 1.5 0 0 0 2.088-.373c.56-.805 1.135-1.6 1.726-2.383a1.5 1.5 0 0 0-.293-2.1 1.5 1.5 0 0 0-1.111-.288ZM200 118.5a1.5 1.5 0 0 0-1.5 1.5c0 .982-.018 1.964-.055 2.943a1.5 1.5 0 0 0 1.444 1.555 1.5 1.5 0 0 0 1.554-1.443c.038-1.02.057-2.037.057-3.055a1.5 1.5 0 0 0-1.5-1.5ZM42.936 141.598a1.5 1.5 0 0 0-1.006 1.867c.292.976.603 1.947.933 2.912a1.5 1.5 0 0 0 1.907.934 1.5 1.5 0 0 0 .931-1.907 75.33 75.33 0 0 1-.898-2.8 1.5 1.5 0 0 0-1.867-1.006zm123.529 41.68a76.39 76.39 0 0 1-2.403 1.699 1.5 1.5 0 0 0-.398 2.082 1.5 1.5 0 0 0 2.084.4 79.358 79.358 0 0 0 2.496-1.766 1.5 1.5 0 0 0 .318-2.097 1.5 1.5 0 0 0-2.097-.319zm-72.756 10.71a1.5 1.5 0 0 0-1.916.91 1.5 1.5 0 0 0 .91 1.916c.96.343 1.928.667 2.9.971a1.5 1.5 0 0 0 1.88-.984 1.5 1.5 0 0 0-.985-1.88 75.405 75.405 0 0 1-2.789-.933z"/><path style="color:#000;fill:#333;stroke-linecap:round;stroke-linejoin:round;-inkscape-stroke:none" d="M120 110c-5.464 0-10 4.536-10 10s4.536 10 10 10 10-4.536 10-10-4.536-10-10-10z"/></svg>