<svg width="240" height="240" xmlns="http://www.w3.org/2000/svg"><path style="color:#000;fill:#000;stroke-linecap:round;stroke-linejoin:round;-inkscape-stroke:none" d="M82.371 32.885a7.5 7.5 0 0 0-5.725.406 7.5 7.5 0 0 0-3.355 10.063l4.572 9.146H40a7.5 7.5 0 0 0-7.5 7.5 7.5 7.5 0 0 0 7.5 7.5h68.97c-7.33 14.294-22.477 29.7-37.406 41.643-18.242 14.593-35.285 24.345-35.285 24.345a7.5 7.5 0 0 0-2.79 10.233 7.5 7.5 0 0 0 10.232 2.79s17.957-10.247 37.215-25.654c17.673-14.138 36.853-32.356 44.44-53.357H130a7.5 7.5 0 0 0 7.5-7.5 7.5 7.5 0 0 0-7.5-7.5H91.975a7.5 7.5 0 0 0-.266-5.854l-5-10a7.5 7.5 0 0 0-4.338-3.761z"/><path style="color:#000;fill:#000;stroke-linecap:round;stroke-linejoin:round;-inkscape-stroke:none" d="M48.182 52.725a7.5 7.5 0 0 0-5.457 9.093c5.856 23.424 27.082 43.633 46.34 59.04 19.257 15.406 37.214 25.654 37.214 25.654a7.5 7.5 0 0 0 10.233-2.791 7.5 7.5 0 0 0-2.791-10.233s-17.043-9.752-35.285-24.345c-18.243-14.594-37.017-34.385-41.16-50.961a7.5 7.5 0 0 0-9.094-5.457zm108.976 70.336a7.5 7.5 0 0 0-4.053 3.984l-30 70a7.5 7.5 0 0 0 3.94 9.85 7.5 7.5 0 0 0 9.85-3.94l6.623-15.455h32.964l6.623 15.455a7.5 7.5 0 0 0 9.85 3.94 7.5 7.5 0 0 0 3.94-9.85l-30-70a7.5 7.5 0 0 0-9.737-3.984zM160 149.043l10.053 23.457h-20.106z"/></svg>