<svg version="1.1" xmlns="http://www.w3.org/2000/svg" viewBox="0 0 853.3603189767853 694.3436221534982" width="853.3603189767853" height="694.3436221534982">
  <!-- svg-source:excalidraw -->
  
  <defs>
    <style class="style-fonts">
      @font-face {
        font-family: "Virgil";
        src: url("https://excalidraw.com/Virgil.woff2");
      }
      @font-face {
        font-family: "Cascadia";
        src: url("https://excalidraw.com/Cascadia.woff2");
      }
      @font-face {
        font-family: "Assistant";
        src: url("https://excalidraw.com/Assistant-Regular.woff2");
      }
    </style>
    
  </defs>
  <rect x="0" y="0" width="853.3603189767853" height="694.3436221534982" fill="#ffffff"></rect><g stroke-linecap="round" transform="translate(15.673351030467757 14.658731577986941) rotate(0 93.29862114305968 22.792822754819156)"><path d="M0 0 C66.07 1.55, 127.65 1.93, 186.6 0 M0 0 C62.06 -0.39, 124.37 -0.4, 186.6 0 M186.6 0 C186.64 19.81, 187.97 37.43, 186.6 45.59 M186.6 0 C186.91 10.3, 186.04 21.4, 186.6 45.59 M186.6 45.59 C132.29 46.08, 75.28 45.48, 0 45.59 M186.6 45.59 C141.14 47.37, 95.67 47.24, 0 45.59 M0 45.59 C1.02 29.18, 0.17 12.6, 0 0 M0 45.59 C-0.47 28.7, -0.36 13.33, 0 0" stroke="#000000" stroke-width="1" fill="none"></path></g><g stroke-linecap="round" transform="translate(15.065542423672696 62.067802908010776) rotate(0 94.51423835665003 83.5736834343368)"><path d="M0 0 C71.19 -0.57, 147.23 -0.37, 189.03 0 M0 0 C73.6 -0.24, 147.92 0.46, 189.03 0 M189.03 0 C189.59 58.24, 188.36 119.56, 189.03 167.15 M189.03 0 C186.45 37.52, 187.04 77.9, 189.03 167.15 M189.03 167.15 C120.51 168.81, 54.43 168.7, 0 167.15 M189.03 167.15 C135.38 166.5, 80.76 165.54, 0 167.15 M0 167.15 C1.76 118.32, 0.79 71.85, 0 0 M0 167.15 C1.05 125.36, 1.73 84.05, 0 0" stroke="#000000" stroke-width="1" fill="none"></path></g><g stroke-linecap="round" transform="translate(13.242116603287059 227.39174395629885) rotate(0 95.72985557024037 26.74357869898779)"><path d="M0 0 C72.1 -0.2, 149.21 -0.53, 191.46 0 M0 0 C54.62 1.58, 109.47 1.5, 191.46 0 M191.46 0 C192.36 13.09, 191.95 22.96, 191.46 53.49 M191.46 0 C192.41 18.95, 191.23 38.44, 191.46 53.49 M191.46 53.49 C141.88 52.07, 88.08 50.28, 0 53.49 M191.46 53.49 C129.98 51.17, 67.13 52.17, 0 53.49 M0 53.49 C1.7 36.84, -1.75 22.46, 0 0 M0 53.49 C-0.6 35.97, 0.19 16.09, 0 0" stroke="#000000" stroke-width="1" fill="none"></path></g><g stroke-linecap="round" transform="translate(281.5896165033578 123.15256789092604) rotate(0 94.51423835665003 83.5736834343368)"><path d="M0 0 C0 0, 0 0, 0 0 M0 0 C0 0, 0 0, 0 0 M-0.26 6.4 C1.79 5.49, 2.4 3.47, 4.99 0.36 M-0.26 6.4 C0.58 5.12, 1.67 4.34, 4.99 0.36 M0.13 12.04 C3.44 8.98, 6.43 5.01, 10.63 -0.03 M0.13 12.04 C3.3 7.95, 6.54 3.7, 10.63 -0.03 M-0.13 18.44 C4.23 11.09, 11.42 6.1, 15.62 0.33 M-0.13 18.44 C5.69 12.91, 9.58 6.11, 15.62 0.33 M0.27 24.08 C9.63 15.74, 14.07 5.41, 21.26 -0.07 M0.27 24.08 C6.85 18.35, 11.61 10.48, 21.26 -0.07 M0 30.48 C12.49 20.05, 20.36 7.02, 26.25 0.29 M0 30.48 C8.53 19.49, 19.33 9.11, 26.25 0.29 M-0.26 36.88 C6.86 30.26, 13.61 21.89, 31.89 -0.1 M-0.26 36.88 C6.5 28.04, 14.84 20.77, 31.89 -0.1 M0.14 42.52 C13.53 29.31, 26.26 13.43, 36.88 0.26 M0.14 42.52 C9.94 32.04, 19.43 19.57, 36.88 0.26 M-0.12 48.92 C11.97 36.04, 24.57 18.68, 42.52 -0.14 M-0.12 48.92 C16.59 30.88, 33.74 11.22, 42.52 -0.14 M0.27 54.56 C7.92 44.85, 18.43 31.88, 47.51 0.22 M0.27 54.56 C10.27 43.19, 19.09 32.13, 47.51 0.22 M0.01 60.96 C17.75 41.24, 39.65 17.91, 53.15 -0.17 M0.01 60.96 C17.47 41.91, 33.08 22.23, 53.15 -0.17 M-0.25 67.36 C14.73 49.9, 30.2 34.91, 58.14 0.19 M-0.25 67.36 C13.21 50.78, 28.32 34.91, 58.14 0.19 M0.14 73 C13.42 56.19, 28.48 40.67, 63.78 -0.21 M0.14 73 C18.38 52.34, 36.56 32.61, 63.78 -0.21 M-0.12 79.4 C25.32 52.33, 46.18 26.73, 68.77 0.15 M-0.12 79.4 C18.73 57.95, 39.08 35.13, 68.77 0.15 M0.28 85.04 C30.68 52.05, 60.29 17.15, 74.41 -0.24 M0.28 85.04 C22.25 61.74, 42.13 38.03, 74.41 -0.24 M0.01 91.44 C27.64 58.63, 53.03 29.91, 79.4 0.12 M0.01 91.44 C23.8 64.25, 48.9 35.03, 79.4 0.12 M-0.25 97.84 C32.88 60.19, 66.51 20.56, 85.04 -0.28 M-0.25 97.84 C33.99 58.74, 67.64 20.33, 85.04 -0.28 M0.15 103.48 C31.47 67.83, 64.89 27.34, 90.03 0.08 M0.15 103.48 C32.84 63.99, 66.04 26.13, 90.03 0.08 M-0.11 109.88 C20.38 83.23, 43.71 59.14, 95.67 -0.31 M-0.11 109.88 C27.18 77.92, 54.41 46.3, 95.67 -0.31 M0.28 115.52 C26.63 86.04, 49.14 54.79, 100.66 0.05 M0.28 115.52 C40.73 70.09, 79.48 25.36, 100.66 0.05 M0.02 121.92 C34.61 82.54, 71.72 38.94, 106.3 -0.34 M0.02 121.92 C25.71 92.3, 50.23 62.52, 106.3 -0.34 M-0.24 128.32 C38.97 81.51, 79.53 37.05, 111.29 0.02 M-0.24 128.32 C41.15 83.64, 80.23 36.66, 111.29 0.02 M0.15 133.96 C32.96 97.02, 64.84 62, 116.27 0.38 M0.15 133.96 C41.28 86.23, 81.74 38.03, 116.27 0.38 M-0.11 140.36 C40.01 91.2, 83.32 45.49, 121.92 -0.02 M-0.11 140.36 C37.71 96.08, 76.52 51.21, 121.92 -0.02 M0.29 146 C45.76 91.75, 91.22 39.04, 126.91 0.34 M0.29 146 C49.27 89.67, 96.47 31.99, 126.91 0.34 M0.02 152.4 C41.6 101.41, 88.48 52.84, 132.55 -0.05 M0.02 152.4 C51.09 94.3, 101.49 36.8, 132.55 -0.05 M-0.24 158.8 C35.95 117.68, 71.85 74.76, 137.54 0.31 M-0.24 158.8 C33.58 121.14, 66.03 84.68, 137.54 0.31 M0.16 164.44 C35.79 124.36, 72.33 82.98, 143.18 -0.09 M0.16 164.44 C51.06 107.42, 102.05 48.59, 143.18 -0.09 M3.18 167.06 C39.45 122.14, 75.36 79.78, 148.17 0.27 M3.18 167.06 C46.11 118.51, 87.8 70.7, 148.17 0.27 M8.16 167.42 C39.17 128.38, 73.79 90.56, 153.81 -0.12 M8.16 167.42 C46.87 122.96, 85.66 77.25, 153.81 -0.12 M13.81 167.03 C56.69 120.78, 97.09 69.5, 158.8 0.24 M13.81 167.03 C56.12 117.55, 98.13 69.03, 158.8 0.24 M18.79 167.39 C76.72 102.29, 133.55 36.38, 164.44 -0.16 M18.79 167.39 C58.77 120.81, 97.74 76.86, 164.44 -0.16 M23.78 167.75 C73.16 108.18, 127.76 48.4, 169.43 0.2 M23.78 167.75 C61.77 120.94, 101.87 76.15, 169.43 0.2 M29.42 167.35 C74.97 116.51, 117.56 61.89, 175.07 -0.19 M29.42 167.35 C73.97 114.3, 120.62 60.58, 175.07 -0.19 M34.41 167.71 C82.28 111.02, 133.55 56.72, 180.06 0.17 M34.41 167.71 C65.15 134.1, 95.19 99.83, 180.06 0.17 M40.05 167.32 C85.2 116.27, 127.08 66.59, 185.7 -0.23 M40.05 167.32 C82.39 116.57, 125.93 67.09, 185.7 -0.23 M45.04 167.68 C90.39 112.71, 135.27 59.02, 189.37 1.64 M45.04 167.68 C94.03 111.46, 145.44 52.36, 189.37 1.64 M50.68 167.28 C101.48 110.71, 151.2 52.57, 189.11 8.04 M50.68 167.28 C92.27 120.48, 132.66 72.72, 189.11 8.04 M55.67 167.64 C98.5 118.33, 140.52 72.57, 189.51 13.68 M55.67 167.64 C98.77 119.6, 141.02 70.45, 189.51 13.68 M61.31 167.25 C86.08 135.32, 115.95 105.2, 189.25 20.08 M61.31 167.25 C105.16 117.67, 148.26 67.41, 189.25 20.08 M66.3 167.61 C105.36 120.89, 144.03 77.55, 188.98 26.48 M66.3 167.61 C114.29 111.99, 161.53 57.77, 188.98 26.48 M71.94 167.22 C106.78 126.87, 140.55 91.11, 189.38 32.12 M71.94 167.22 C101.73 133.79, 133.34 97.85, 189.38 32.12 M76.93 167.58 C106.78 133.34, 136.12 97.89, 189.12 38.52 M76.93 167.58 C100.73 139.13, 127.37 108.46, 189.12 38.52 M82.57 167.18 C115.79 125.65, 151.63 86.16, 189.51 44.16 M82.57 167.18 C126.82 117.22, 168.96 69.22, 189.51 44.16 M87.56 167.54 C117.91 137.07, 143.7 102.55, 189.25 50.56 M87.56 167.54 C122.41 126.31, 158.82 84.11, 189.25 50.56 M93.2 167.15 C127.23 130.3, 157.45 91.73, 188.99 56.96 M93.2 167.15 C124.17 130.75, 154.36 95.53, 188.99 56.96 M98.19 167.51 C132.27 130.79, 167.59 88.05, 189.38 62.6 M98.19 167.51 C119.62 143.25, 141.76 116.59, 189.38 62.6 M103.83 167.11 C128.45 137.48, 156.89 106.37, 189.12 69 M103.83 167.11 C130.75 134.61, 158 104.18, 189.12 69 M108.82 167.47 C124.4 147.83, 141.62 130.49, 189.52 74.64 M108.82 167.47 C129.66 142.75, 150.06 118.13, 189.52 74.64 M114.46 167.08 C133.62 142.13, 157.41 120.48, 189.25 81.04 M114.46 167.08 C136.48 142.93, 157.39 118.57, 189.25 81.04 M119.45 167.44 C142.63 140.65, 165.01 113.65, 188.99 87.44 M119.45 167.44 C143.63 140.07, 165.46 114.18, 188.99 87.44 M125.09 167.04 C137.97 152.63, 152.66 137.25, 189.39 93.08 M125.09 167.04 C141.11 149.52, 157.34 132.51, 189.39 93.08 M130.08 167.4 C146.37 149.74, 163.45 130.24, 189.13 99.48 M130.08 167.4 C143.09 151.39, 157.7 136.15, 189.13 99.48 M135.72 167.01 C156.45 143.35, 175.32 120.5, 189.52 105.12 M135.72 167.01 C148.51 152.18, 160.48 140.08, 189.52 105.12 M140.71 167.37 C157.3 150.47, 170.62 130.21, 189.26 111.52 M140.71 167.37 C157.44 149.25, 171.76 131.04, 189.26 111.52 M145.7 167.73 C160.06 149.84, 176.94 134.11, 189 117.92 M145.7 167.73 C162.31 148.36, 178.31 129.39, 189 117.92 M151.34 167.33 C165.64 153.4, 175.87 135.45, 189.39 123.56 M151.34 167.33 C159.66 157.69, 169.01 146.91, 189.39 123.56 M156.33 167.69 C164.44 157.94, 174.26 150.93, 189.13 129.96 M156.33 167.69 C165.07 157.16, 175.23 145.97, 189.13 129.96 M161.97 167.3 C170.83 156.52, 179.11 144.7, 189.53 135.6 M161.97 167.3 C171.16 156.62, 179.74 145.68, 189.53 135.6 M166.96 167.66 C171.63 161.36, 176.32 153.72, 189.26 142 M166.96 167.66 C171.74 162.23, 175.66 157.27, 189.26 142 M172.6 167.27 C178.65 162.71, 180.42 159.62, 189 148.4 M172.6 167.27 C178.42 161.85, 183.72 155.12, 189 148.4 M177.59 167.63 C181.5 163.04, 181.92 160.64, 189.4 154.04 M177.59 167.63 C181.16 163.79, 183.3 160.07, 189.4 154.04 M183.23 167.23 C185.32 165.78, 185.88 165, 189.14 160.44 M183.23 167.23 C185.58 164.78, 187.21 161.99, 189.14 160.44 M188.22 167.59 C188.61 167.37, 189.03 166.74, 189.53 166.08 M188.22 167.59 C188.56 167.22, 188.91 166.72, 189.53 166.08" stroke="#a5d8ff" stroke-width="0.5" fill="none"></path><path d="M0 0 C67.73 -1.42, 130.62 -1.45, 189.03 0 M0 0 C43.55 -0.69, 85.93 0.67, 189.03 0 M189.03 0 C189.13 33.44, 189.03 68.41, 189.03 167.15 M189.03 0 C188.33 66.95, 188.6 132.1, 189.03 167.15 M189.03 167.15 C146.65 169.29, 108.92 166.35, 0 167.15 M189.03 167.15 C139.79 167.83, 89.91 166.96, 0 167.15 M0 167.15 C1.83 132.62, 0.3 98.69, 0 0 M0 167.15 C2.4 124.57, 0.69 82.32, 0 0" stroke="#1971c2" stroke-width="1" fill="none"></path></g><g stroke-linecap="round"><g transform="translate(241.77815275827356 74.83178365070944) rotate(0 -0.6078086067951745 49.84030575720453)"><path d="M0 0 C0.35 36.99, 0.34 72.46, -1.22 99.68 M0 0 C-0.29 28.96, 0.14 57.32, -1.22 99.68" stroke="#000000" stroke-width="1" fill="none"></path></g><g transform="translate(241.77815275827356 74.83178365070944) rotate(0 -0.6078086067951745 49.84030575720453)"><path d="M-9.22 76 C-5.25 84.78, -1.84 92.06, -1.22 99.68 M-9.22 76 C-7.45 83.07, -4.37 89.56, -1.22 99.68" stroke="#000000" stroke-width="1" fill="none"></path></g><g transform="translate(241.77815275827356 74.83178365070944) rotate(0 -0.6078086067951745 49.84030575720453)"><path d="M7.88 76.39 C5.51 85.06, 2.57 92.19, -1.22 99.68 M7.88 76.39 C4.72 83.38, 2.88 89.76, -1.22 99.68" stroke="#000000" stroke-width="1" fill="none"></path></g></g><mask></mask><g stroke-linecap="round" transform="translate(574.4468142622216 10) rotate(0 93.29862114305968 22.792822754819156)"><path d="M0 0 C39.44 2.44, 80.31 2.64, 186.6 0 M186.6 0 C186.48 16.92, 186.52 28.23, 186.6 45.59 M186.6 45.59 C130.67 46.08, 76.08 44.09, 0 45.59 M0 45.59 C-2.13 33.61, 0.36 20.08, 0 0" stroke="#000000" stroke-width="1.5" fill="none" stroke-dasharray="8 9"></path></g><g stroke-linecap="round" transform="translate(573.839005655427 57.40907133002395) rotate(0 94.51423835665003 83.5736834343368)"><path d="M0 0 C50.74 0.3, 100.09 -0.44, 189.03 0 M189.03 0 C188.35 57.93, 188.72 117.91, 189.03 167.15 M189.03 167.15 C141.65 167.53, 90.28 169.63, 0 167.15 M0 167.15 C2.19 111.26, 1.19 51.43, 0 0" stroke="#000000" stroke-width="1.5" fill="none" stroke-dasharray="8 9"></path></g><g stroke-linecap="round" transform="translate(572.0155798350413 222.73301237831197) rotate(0 95.72985557024037 26.74357869898779)"><path d="M0 0 C74.75 -0.66, 149.53 -2.27, 191.46 0 M191.46 0 C191.39 20.12, 190.58 43, 191.46 53.49 M191.46 53.49 C122.2 54.09, 54.05 50.93, 0 53.49 M0 53.49 C-0.51 32.23, -0.5 13.13, 0 0" stroke="#000000" stroke-width="1.5" fill="none" stroke-dasharray="8 9"></path></g><g stroke-linecap="round" transform="translate(573.2311970486314 127.9998082187887) rotate(0 94.51423835665003 83.5736834343368)"><path d="M0 0 C0 0, 0 0, 0 0 M0 0 C0 0, 0 0, 0 0 M-0.26 6.4 C2.04 4.82, 3.1 2.66, 4.99 0.36 M-0.26 6.4 C1.08 4.06, 2.87 2.38, 4.99 0.36 M0.13 12.04 C3 10.05, 5.51 5.22, 10.63 -0.03 M0.13 12.04 C3.6 7.76, 7.77 2.47, 10.63 -0.03 M-0.13 18.44 C7.22 11.93, 11.43 5.1, 15.62 0.33 M-0.13 18.44 C6.69 11.27, 11.09 4.86, 15.62 0.33 M0.27 24.08 C5.11 14.78, 12.75 11.14, 21.26 -0.07 M0.27 24.08 C6.08 18.05, 11.09 11.88, 21.26 -0.07 M0 30.48 C5.01 22.77, 13.92 16.85, 26.25 0.29 M0 30.48 C9.43 20.17, 19.11 8.31, 26.25 0.29 M-0.26 36.88 C11.27 22.69, 25.61 8.8, 31.89 -0.1 M-0.26 36.88 C10.57 24.34, 18.93 13.42, 31.89 -0.1 M0.14 42.52 C13.02 26.91, 24.79 13.39, 36.88 0.26 M0.14 42.52 C9.8 31.85, 20.97 18.61, 36.88 0.26 M-0.12 48.92 C13.04 35.25, 26.88 18.26, 42.52 -0.14 M-0.12 48.92 C11.22 34.66, 23.35 21.61, 42.52 -0.14 M0.27 54.56 C12.15 39.19, 25.35 24.24, 47.51 0.22 M0.27 54.56 C16.6 34.03, 33.49 15.38, 47.51 0.22 M0.01 60.96 C19.67 42.76, 33.87 21.67, 53.15 -0.17 M0.01 60.96 C14.19 45.27, 27.45 28.51, 53.15 -0.17 M-0.25 67.36 C16.87 46.85, 32.32 30.38, 58.14 0.19 M-0.25 67.36 C18.04 45.95, 38.32 23.63, 58.14 0.19 M0.14 73 C15.53 58.29, 27.08 39.01, 63.78 -0.21 M0.14 73 C25.18 45.01, 51.06 17.01, 63.78 -0.21 M-0.12 79.4 C22.53 52.57, 45.49 27.01, 68.77 0.15 M-0.12 79.4 C24.03 50.54, 49.86 23.71, 68.77 0.15 M0.28 85.04 C24.65 56.67, 50.74 26.74, 74.41 -0.24 M0.28 85.04 C16.69 65.29, 35.41 45.24, 74.41 -0.24 M0.01 91.44 C26.4 65.18, 48.93 34.77, 79.4 0.12 M0.01 91.44 C23.4 64.61, 45.95 38.56, 79.4 0.12 M-0.25 97.84 C31.76 63.61, 59.87 28.52, 85.04 -0.28 M-0.25 97.84 C26.64 66.01, 54.93 34.38, 85.04 -0.28 M0.15 103.48 C18.91 80.47, 40.96 54.92, 90.03 0.08 M0.15 103.48 C24.28 76.12, 46.04 50.77, 90.03 0.08 M-0.11 109.88 C35.87 70.25, 69.3 28.22, 95.67 -0.31 M-0.11 109.88 C28.63 75.89, 56.62 43.52, 95.67 -0.31 M0.28 115.52 C35.13 73.05, 72.18 31.89, 100.66 0.05 M0.28 115.52 C23.67 91.39, 43.46 66.2, 100.66 0.05 M0.02 121.92 C41.81 76.21, 79.15 31.54, 106.3 -0.34 M0.02 121.92 C34.15 84.61, 67.16 46.31, 106.3 -0.34 M-0.24 128.32 C36.61 83.8, 77.32 35.72, 111.29 0.02 M-0.24 128.32 C26.63 97.81, 54.41 67.25, 111.29 0.02 M0.15 133.96 C40.39 85.57, 80.68 39.49, 116.27 0.38 M0.15 133.96 C24.39 106.49, 50.73 75.92, 116.27 0.38 M-0.11 140.36 C34.85 100.56, 69.42 61.03, 121.92 -0.02 M-0.11 140.36 C26.22 108.74, 53.05 77.28, 121.92 -0.02 M0.29 146 C26.03 112.34, 54.76 78.65, 126.91 0.34 M0.29 146 C30.17 113.23, 59.31 78.73, 126.91 0.34 M0.02 152.4 C27.32 122.91, 55.45 90.48, 132.55 -0.05 M0.02 152.4 C49.41 95.36, 98.85 36.57, 132.55 -0.05 M-0.24 158.8 C39.97 113.23, 81.56 66, 137.54 0.31 M-0.24 158.8 C30.13 122.75, 61 86.66, 137.54 0.31 M0.16 164.44 C29.23 128.63, 63.4 91.63, 143.18 -0.09 M0.16 164.44 C46.36 110.64, 91.14 58.94, 143.18 -0.09 M3.18 167.06 C32.06 131.1, 61.17 98.93, 148.17 0.27 M3.18 167.06 C39.91 126.58, 76.78 85.95, 148.17 0.27 M8.16 167.42 C36.33 133.07, 65.27 100.59, 153.81 -0.12 M8.16 167.42 C67.21 99.29, 123.92 32.92, 153.81 -0.12 M13.81 167.03 C68.25 106.27, 120.67 41.92, 158.8 0.24 M13.81 167.03 C45.51 132.03, 77.61 95.32, 158.8 0.24 M18.79 167.39 C57.74 124.03, 95.59 78.04, 164.44 -0.16 M18.79 167.39 C73.54 105.24, 126.69 44.15, 164.44 -0.16 M23.78 167.75 C73.83 109.75, 122.75 53.15, 169.43 0.2 M23.78 167.75 C54.87 133.09, 84.31 98.52, 169.43 0.2 M29.42 167.35 C73.22 115.56, 117.87 64.79, 175.07 -0.19 M29.42 167.35 C74.66 113.67, 120.82 61.65, 175.07 -0.19 M34.41 167.71 C72.53 126.08, 107.8 81.19, 180.06 0.17 M34.41 167.71 C87.87 104.3, 142.17 42.64, 180.06 0.17 M40.05 167.32 C74.06 125.2, 108.97 84.88, 185.7 -0.23 M40.05 167.32 C85.69 112.55, 133.02 59.19, 185.7 -0.23 M45.04 167.68 C99.11 104.81, 151.03 44.47, 189.37 1.64 M45.04 167.68 C78.52 131.13, 109.53 93.74, 189.37 1.64 M50.68 167.28 C104.62 106.36, 155.94 47.49, 189.11 8.04 M50.68 167.28 C79.49 132.76, 108.08 99.54, 189.11 8.04 M55.67 167.64 C102.19 113.77, 146.82 60.08, 189.51 13.68 M55.67 167.64 C100.74 114.41, 146.94 61.87, 189.51 13.68 M61.31 167.25 C95.58 126.4, 131.35 88.9, 189.25 20.08 M61.31 167.25 C113.39 107.21, 165.51 49.35, 189.25 20.08 M66.3 167.61 C108.12 116.6, 154.76 66.31, 188.98 26.48 M66.3 167.61 C102.19 127.04, 137.09 86.47, 188.98 26.48 M71.94 167.22 C97.86 134.89, 124.31 106.78, 189.38 32.12 M71.94 167.22 C98.86 132.85, 127.52 101.35, 189.38 32.12 M76.93 167.58 C117.16 117.74, 159.68 69.5, 189.12 38.52 M76.93 167.58 C105.94 134.09, 136.15 99.87, 189.12 38.52 M82.57 167.18 C105.76 141.92, 129.36 113.07, 189.51 44.16 M82.57 167.18 C115.75 131.1, 146.64 92.89, 189.51 44.16 M87.56 167.54 C118.26 134.07, 150.29 97.54, 189.25 50.56 M87.56 167.54 C115.2 135.21, 140.59 104.33, 189.25 50.56 M93.2 167.15 C129.39 124.75, 166.25 83.02, 188.99 56.96 M93.2 167.15 C116.38 138.72, 140.49 112.49, 188.99 56.96 M98.19 167.51 C116.99 144.05, 137.15 123.41, 189.38 62.6 M98.19 167.51 C127.75 132.66, 159.99 97.09, 189.38 62.6 M103.83 167.11 C126.73 138.87, 148.43 111.93, 189.12 69 M103.83 167.11 C136.16 130.24, 170.09 92.07, 189.12 69 M108.82 167.47 C135.8 138.2, 161.42 109.67, 189.52 74.64 M108.82 167.47 C132.83 139.47, 157.94 110.76, 189.52 74.64 M114.46 167.08 C135.46 145.04, 155.75 122.62, 189.25 81.04 M114.46 167.08 C138.44 137.26, 165.75 106.89, 189.25 81.04 M119.45 167.44 C136.56 149.79, 150.55 130.36, 188.99 87.44 M119.45 167.44 C135.41 148.36, 153.48 129.96, 188.99 87.44 M125.09 167.04 C146.5 141.37, 170.02 115.96, 189.39 93.08 M125.09 167.04 C146.12 143.7, 166.9 118.61, 189.39 93.08 M130.08 167.4 C143.87 148.59, 158.77 131, 189.13 99.48 M130.08 167.4 C142.52 153.18, 154.13 138.77, 189.13 99.48 M135.72 167.01 C151.09 149.33, 165.35 130.22, 189.52 105.12 M135.72 167.01 C151.94 146.96, 167.35 129.48, 189.52 105.12 M140.71 167.37 C157.19 148.65, 171.13 130.46, 189.26 111.52 M140.71 167.37 C157.36 149.18, 171.6 130.62, 189.26 111.52 M145.7 167.73 C158.5 155.66, 168.8 141.45, 189 117.92 M145.7 167.73 C154.64 155.99, 165.31 144.54, 189 117.92 M151.34 167.33 C160.77 154.8, 174.33 141.54, 189.39 123.56 M151.34 167.33 C163.22 155.66, 173.84 142.01, 189.39 123.56 M156.33 167.69 C164.96 154.9, 178.38 144.12, 189.13 129.96 M156.33 167.69 C168.95 153.61, 182.3 137.56, 189.13 129.96 M161.97 167.3 C171.93 157.43, 179.39 144.6, 189.53 135.6 M161.97 167.3 C168.28 159.66, 175.22 153.75, 189.53 135.6 M166.96 167.66 C171.23 163.4, 175.54 155.86, 189.26 142 M166.96 167.66 C174.32 159.96, 180.73 151.93, 189.26 142 M172.6 167.27 C175.34 162.16, 183 155.71, 189 148.4 M172.6 167.27 C178.01 162.69, 181.67 155.94, 189 148.4 M177.59 167.63 C179.64 165.85, 183.44 160.96, 189.4 154.04 M177.59 167.63 C182.23 163.11, 186.31 158.77, 189.4 154.04 M183.23 167.23 C184.37 166.1, 185.59 164.97, 189.14 160.44 M183.23 167.23 C184.83 165.36, 186.51 163.87, 189.14 160.44 M188.22 167.59 C188.59 167.04, 189.15 166.67, 189.53 166.08 M188.22 167.59 C188.7 166.91, 189.34 166.37, 189.53 166.08" stroke="#a5d8ff" stroke-width="0.5" fill="none"></path><path d="M0 0 C69 0.73, 134.34 0.59, 189.03 0 M0 0 C62.19 -2.41, 126.3 -1.98, 189.03 0 M189.03 0 C191.42 53.37, 191.45 105.99, 189.03 167.15 M189.03 0 C188.76 59.56, 188.7 119.57, 189.03 167.15 M189.03 167.15 C117.64 170.61, 41.27 167.73, 0 167.15 M189.03 167.15 C125.89 164.51, 65.33 165.45, 0 167.15 M0 167.15 C0.41 103.53, 0.29 41.1, 0 0 M0 167.15 C-0.51 122.62, -1.11 77.55, 0 0" stroke="#1971c2" stroke-width="1" fill="none"></path></g><g stroke-linecap="round" transform="translate(572.0522645860456 295.59676359196686) rotate(0 95.69317081923577 26.451770795561146)"><path d="M0 0 C51.24 2.08, 97.89 1.34, 191.39 0 M0 0 C40.99 0.54, 80.11 0.17, 191.39 0 M191.39 0 C190.67 16.03, 191.58 31.74, 191.39 52.9 M191.39 0 C190.82 18.68, 191.13 39.62, 191.39 52.9 M191.39 52.9 C114.8 50.73, 41.94 52.83, 0 52.9 M191.39 52.9 C144.69 53.5, 96.71 54.09, 0 52.9 M0 52.9 C1.05 33.93, -0.3 15.39, 0 0 M0 52.9 C-0.96 38.33, 0.12 23.94, 0 0" stroke="#1e1e1e" stroke-width="1" fill="none"></path></g><g stroke-linecap="round" transform="translate(13.889966293464909 404.3659573380095) rotate(0 17.50484832059192 19.060834837977893)"><path d="M0 0 C8.33 -0.33, 17.93 -0.87, 35.01 0 M0 0 C9.52 -0.59, 19.71 -0.04, 35.01 0 M35.01 0 C35.92 7.76, 34.61 16.64, 35.01 38.12 M35.01 0 C35.49 10.7, 34.9 20.78, 35.01 38.12 M35.01 38.12 C23.22 38.86, 13.39 37.66, 0 38.12 M35.01 38.12 C26.26 38.28, 17.09 38.65, 0 38.12 M0 38.12 C0.09 30.31, 0.24 20.6, 0 0 M0 38.12 C0.06 28.29, -0.43 17.71, 0 0" stroke="#1e1e1e" stroke-width="1" fill="none"></path></g><g stroke-linecap="round" transform="translate(48.899662934648745 401.25398430323764) rotate(0 57.96049777262664 21.783811243403306)"><path d="M0 0 C26.53 -0.11, 58.4 0.94, 115.92 0 M0 0 C26.27 -0.92, 54.56 -1.05, 115.92 0 M115.92 0 C114.97 10.41, 116.35 24.51, 115.92 43.57 M115.92 0 C116.71 12.81, 115.24 25.44, 115.92 43.57 M115.92 43.57 C81.02 41.13, 46.67 41.58, 0 43.57 M115.92 43.57 C73.64 44.26, 30.46 43.45, 0 43.57 M0 43.57 C1.1 29.52, -1.27 20.79, 0 0 M0 43.57 C-0.42 30.83, 0.03 17.13, 0 0" stroke="#1e1e1e" stroke-width="1" fill="none"></path></g><g stroke-linecap="round" transform="translate(164.04266522120906 402.80997082062356) rotate(0 22.950801131442745 21.00581798471032)"><path d="M0 0 C14.66 0.29, 27.84 0.31, 45.9 0 M0 0 C9.57 0.55, 18.11 0.07, 45.9 0 M45.9 0 C45.48 10.89, 46.04 22.93, 45.9 42.01 M45.9 0 C45.58 13.64, 45.77 27.75, 45.9 42.01 M45.9 42.01 C29.53 42.54, 12.23 43.04, 0 42.01 M45.9 42.01 C31.43 41.76, 16.67 42.33, 0 42.01 M0 42.01 C-0.02 30.52, -0.57 18.34, 0 0 M0 42.01 C0.51 31.66, -0.27 21.15, 0 0" stroke="#1e1e1e" stroke-width="1" fill="none"></path></g><g stroke-linecap="round" transform="translate(12.33397977607899 443.2656202726582) rotate(0 18.282841579284877 64.1844438421704)"><path d="M0 0 C9.52 1.69, 17.73 0.76, 36.57 0 M0 0 C13.23 -0.44, 26.06 0.38, 36.57 0 M36.57 0 C35.28 42.19, 34.75 85.95, 36.57 128.37 M36.57 0 C35.45 25.55, 34.77 51.97, 36.57 128.37 M36.57 128.37 C25.19 127.51, 14.76 127.47, 0 128.37 M36.57 128.37 C25.27 128.52, 14.68 128.82, 0 128.37 M0 128.37 C1.34 97.69, -0.42 62.29, 0 0 M0 128.37 C-0.56 80.2, -0.09 33.08, 0 0" stroke="#1e1e1e" stroke-width="1" fill="none"></path></g><g stroke-linecap="round" transform="translate(47.34367641726283 439.37565397919343) rotate(0 59.516484290012556 65.74043035955634)"><path d="M0 0 C36.24 1.86, 71.41 -0.35, 119.03 0 M0 0 C33.5 1.68, 65.32 -0.04, 119.03 0 M119.03 0 C120.89 38.76, 117.75 75.68, 119.03 131.48 M119.03 0 C120.43 26.76, 119.91 54.4, 119.03 131.48 M119.03 131.48 C72.98 130.12, 29.34 131.86, 0 131.48 M119.03 131.48 C88.53 131.78, 59.95 132.3, 0 131.48 M0 131.48 C1.28 96.03, 1.01 64.73, 0 0 M0 131.48 C0.09 85.14, 0.8 36.85, 0 0" stroke="#1e1e1e" stroke-width="1" fill="none"></path></g><g stroke-linecap="round" transform="translate(164.04266522120906 440.93164049657935) rotate(0 22.172807872749672 64.96243710086338)"><path d="M0 0 C10.79 0.52, 19.9 -0.32, 44.35 0 M0 0 C14.88 0.54, 29.87 0.12, 44.35 0 M44.35 0 C45.2 51.54, 43.2 97.94, 44.35 129.92 M44.35 0 C44.49 34.4, 44.01 69.47, 44.35 129.92 M44.35 129.92 C28.99 131.72, 15.58 130.75, 0 129.92 M44.35 129.92 C33.27 129.4, 22.19 129.89, 0 129.92 M0 129.92 C1.95 95.14, 0.39 62.72, 0 0 M0 129.92 C0.32 91.32, 0.31 53.74, 0 0" stroke="#1e1e1e" stroke-width="1" fill="none"></path></g><g stroke-linecap="round" transform="translate(10 571.6345079569991) rotate(0 19.449831467324373 13.225885397780587)"><path d="M0 0 C14.95 0.47, 29.53 -0.04, 38.9 0 M0 0 C12.76 -0.32, 25.68 -0.14, 38.9 0 M38.9 0 C38.11 6.92, 38.16 14.75, 38.9 26.45 M38.9 0 C39.42 7.24, 38.58 13.63, 38.9 26.45 M38.9 26.45 C27.72 26.61, 18.42 26.14, 0 26.45 M38.9 26.45 C24.78 26.23, 10.04 26.17, 0 26.45 M0 26.45 C0.71 18.59, -0.08 11.61, 0 0 M0 26.45 C-0.17 19.23, -0.58 12.6, 0 0" stroke="#1e1e1e" stroke-width="1" fill="none"></path></g><g stroke-linecap="round" transform="translate(47.34367641726283 571.6345079569991) rotate(0 58.34949440197312 12.058895509741092)"><path d="M0 0 C27.78 1.81, 58.52 -0.03, 116.7 0 M0 0 C25.85 0.36, 50.85 1.13, 116.7 0 M116.7 0 C114.97 6.98, 117.08 12.7, 116.7 24.12 M116.7 0 C116.5 8.41, 117.03 16.9, 116.7 24.12 M116.7 24.12 C70.63 24.12, 22.35 25.4, 0 24.12 M116.7 24.12 C85.81 24.32, 52.9 25.23, 0 24.12 M0 24.12 C-2.01 16.83, -2.19 12.73, 0 0 M0 24.12 C0.1 19.02, -0.17 11.85, 0 0" stroke="#1e1e1e" stroke-width="1" fill="none"></path></g><g stroke-linecap="round" transform="translate(164.04266522120906 570.8565146983061) rotate(0 22.561804502096265 11.669898880394612)"><path d="M0 0 C17.77 -0.63, 33.88 -0.15, 45.12 0 M0 0 C12.4 -0.56, 23.66 0, 45.12 0 M45.12 0 C44.56 4.67, 44.25 10.61, 45.12 23.34 M45.12 0 C44.86 5.76, 45.55 11.86, 45.12 23.34 M45.12 23.34 C35.49 23.62, 25.46 22.25, 0 23.34 M45.12 23.34 C34.26 23.01, 22.51 23.55, 0 23.34 M0 23.34 C-0.29 17.21, 0.82 11.4, 0 0 M0 23.34 C-0.14 16.2, -0.13 8.71, 0 0" stroke="#1e1e1e" stroke-width="1" fill="none"></path></g><g stroke-linecap="round" transform="translate(329.7552293228125 481.7348797101887) rotate(0 78.18832249864397 73.90935957583258)"><path d="M0 0 C0 0, 0 0, 0 0 M0 0 C0 0, 0 0, 0 0 M-0.26 6.4 C1.25 4.23, 2.22 3.92, 4.99 0.36 M-0.26 6.4 C1.58 3.96, 3.39 1.91, 4.99 0.36 M0.13 12.04 C2.78 7.27, 7.57 4.03, 10.63 -0.03 M0.13 12.04 C3.86 7.14, 8.77 2.25, 10.63 -0.03 M-0.13 18.44 C2.06 16.28, 5.01 9.35, 15.62 0.33 M-0.13 18.44 C3.23 13.33, 7.89 9.48, 15.62 0.33 M0.27 24.08 C6.27 18.21, 12.66 11, 21.26 -0.07 M0.27 24.08 C4.8 19.31, 10.2 11.94, 21.26 -0.07 M0 30.48 C4.45 24.01, 9.47 16.72, 26.25 0.29 M0 30.48 C6.11 22.13, 13.36 14.82, 26.25 0.29 M-0.26 36.88 C12.7 23.55, 26.29 10.15, 31.89 -0.1 M-0.26 36.88 C12.41 22.06, 24.94 7.33, 31.89 -0.1 M0.14 42.52 C10.69 28.96, 26.01 13.42, 36.88 0.26 M0.14 42.52 C9.84 32.55, 18.3 20.82, 36.88 0.26 M-0.12 48.92 C13.08 32.84, 23.13 18.38, 42.52 -0.14 M-0.12 48.92 C16.34 30.41, 32.87 10.35, 42.52 -0.14 M0.27 54.56 C15.7 38.41, 27.71 23.05, 47.51 0.22 M0.27 54.56 C14.48 38.39, 28.65 22.37, 47.51 0.22 M0.01 60.96 C20.67 37.67, 36.41 18.84, 53.15 -0.17 M0.01 60.96 C15.22 45.27, 28.45 27.8, 53.15 -0.17 M-0.25 67.36 C20.21 45.45, 36.29 26.07, 58.14 0.19 M-0.25 67.36 C18.23 45.43, 38.89 22.72, 58.14 0.19 M0.14 73 C20.17 49.63, 37.92 26.94, 63.78 -0.21 M0.14 73 C20.04 50.72, 39.83 27.88, 63.78 -0.21 M-0.12 79.4 C16.34 61.87, 32.49 44.03, 68.77 0.15 M-0.12 79.4 C15.11 62.73, 30.68 43.98, 68.77 0.15 M0.28 85.04 C23.82 60.61, 44.57 34.2, 74.41 -0.24 M0.28 85.04 C21.36 60.47, 41.79 35.12, 74.41 -0.24 M0.01 91.44 C26.81 59.01, 56.55 24.98, 79.4 0.12 M0.01 91.44 C27.81 60.02, 54.89 27.38, 79.4 0.12 M-0.25 97.84 C23.34 70.35, 46.96 42.86, 85.04 -0.28 M-0.25 97.84 C20.14 75.75, 38.55 53.05, 85.04 -0.28 M0.15 103.48 C21.91 76.46, 46.92 46.09, 90.03 0.08 M0.15 103.48 C20.13 80.57, 41.04 59.24, 90.03 0.08 M-0.11 109.88 C18.75 84.83, 39.54 62.69, 95.67 -0.31 M-0.11 109.88 C20.53 83.8, 41.84 59.25, 95.67 -0.31 M0.28 115.52 C38.68 71.9, 77.89 23.91, 100.66 0.05 M0.28 115.52 C25.41 88.71, 48.69 62.25, 100.66 0.05 M0.02 121.92 C29.44 86.67, 58.38 54, 106.3 -0.34 M0.02 121.92 C26.01 93.59, 50.47 63.37, 106.3 -0.34 M-0.24 128.32 C22.5 100.37, 47.27 73.53, 111.29 0.02 M-0.24 128.32 C40.1 83.14, 78.77 38.01, 111.29 0.02 M0.15 133.96 C26.67 103.08, 52.64 75.09, 116.27 0.38 M0.15 133.96 C36.27 93.36, 71.64 50.54, 116.27 0.38 M-0.11 140.36 C34.61 101.07, 67.08 60.53, 121.92 -0.02 M-0.11 140.36 C47.42 86.64, 95.97 29.97, 121.92 -0.02 M0.29 146 C37.16 103.81, 72.23 62.25, 126.91 0.34 M0.29 146 C41.6 101.03, 82.28 53.51, 126.91 0.34 M3.96 147.87 C54.39 89.89, 105.85 31.48, 132.55 -0.05 M3.96 147.87 C51.1 95.5, 96.88 43.56, 132.55 -0.05 M9.6 147.47 C60.45 86.67, 112.22 31.78, 137.54 0.31 M9.6 147.47 C41.23 111.41, 75.68 73.31, 137.54 0.31 M14.59 147.83 C63.03 87.89, 116.93 31.97, 143.18 -0.09 M14.59 147.83 C53.53 103.49, 92.69 58.27, 143.18 -0.09 M19.58 148.19 C45.8 116.84, 73.44 89.45, 148.17 0.27 M19.58 148.19 C60.44 101.9, 101.7 53.75, 148.17 0.27 M25.22 147.8 C57.99 112.37, 84.36 78.82, 153.81 -0.12 M25.22 147.8 C59.75 109.49, 92.82 69, 153.81 -0.12 M30.21 148.16 C68.21 106.83, 103.85 64.93, 156.83 2.5 M30.21 148.16 C60.93 113.87, 91.23 79.77, 156.83 2.5 M35.85 147.77 C64.9 110.84, 94.17 77.93, 157.22 8.14 M35.85 147.77 C74.65 101.31, 115.81 55.85, 157.22 8.14 M40.84 148.13 C73.37 109.01, 109.09 71.05, 156.96 14.54 M40.84 148.13 C81.87 100.29, 122.95 52.07, 156.96 14.54 M46.48 147.73 C82.23 109.71, 116.67 67.84, 157.35 20.19 M46.48 147.73 C87.91 101.64, 127.63 55.11, 157.35 20.19 M51.47 148.09 C73.75 123.93, 94.65 99.95, 157.09 26.58 M51.47 148.09 C85.21 107.8, 121.27 68.11, 157.09 26.58 M57.11 147.7 C85.76 117.45, 112.69 87.37, 156.83 32.98 M57.11 147.7 C86.89 114.75, 115.05 81.85, 156.83 32.98 M62.1 148.06 C91.38 116.99, 119.34 85.43, 157.23 38.62 M62.1 148.06 C84.89 121.91, 107.44 97.73, 157.23 38.62 M67.74 147.66 C97.01 116.62, 126.84 82.4, 156.97 45.02 M67.74 147.66 C87.39 126.57, 104.51 104.85, 156.97 45.02 M72.73 148.02 C103.96 113.73, 134.47 75.83, 157.36 50.66 M72.73 148.02 C94.83 122.72, 116.89 98.09, 157.36 50.66 M78.37 147.63 C95.11 127.23, 115.56 107.87, 157.1 57.06 M78.37 147.63 C100.9 120.97, 124.14 96.8, 157.1 57.06 M83.36 147.99 C103.14 120.84, 126.17 98.02, 156.84 63.46 M83.36 147.99 C100.34 129.46, 115.35 112.12, 156.84 63.46 M89 147.59 C107.02 126.09, 128.11 103.91, 157.23 69.1 M89 147.59 C106.16 126.57, 122.68 107.19, 157.23 69.1 M93.99 147.95 C115.69 123.45, 133.34 103.3, 156.97 75.5 M93.99 147.95 C109.04 132.02, 122.95 114.99, 156.97 75.5 M99.63 147.56 C121.19 121.56, 141.49 97.15, 157.36 81.14 M99.63 147.56 C115.95 127.19, 134.64 107.23, 157.36 81.14 M104.62 147.92 C122.02 126.51, 137.18 110.45, 157.1 87.54 M104.62 147.92 C117.86 132.49, 131.16 118.36, 157.1 87.54 M110.26 147.52 C124.73 130.24, 140.17 113.78, 156.84 93.94 M110.26 147.52 C118.61 136.42, 128.71 125.63, 156.84 93.94 M115.25 147.88 C128 132.33, 144.85 113.32, 157.24 99.58 M115.25 147.88 C130.25 130.84, 142.9 115.75, 157.24 99.58 M120.89 147.49 C131.94 131.57, 144.56 118.4, 156.97 105.98 M120.89 147.49 C133.81 131.55, 149.06 115.45, 156.97 105.98 M125.88 147.85 C133.77 137.18, 144.4 126.11, 157.37 111.62 M125.88 147.85 C137.29 134.54, 149.92 122.22, 157.37 111.62 M130.87 148.21 C138.89 139.77, 148.88 128.94, 157.11 118.02 M130.87 148.21 C137.22 140.02, 144.32 132.19, 157.11 118.02 M136.51 147.82 C140.15 140.25, 144.75 136.63, 156.85 124.42 M136.51 147.82 C143.78 140.8, 150.49 132.65, 156.85 124.42 M141.5 148.18 C144.1 145.67, 149.83 139.47, 157.24 130.06 M141.5 148.18 C146.17 142.99, 149.27 138.42, 157.24 130.06 M147.14 147.78 C151.47 145.73, 153.97 139.45, 156.98 136.46 M147.14 147.78 C149.74 144.94, 152.59 141.5, 156.98 136.46 M152.13 148.14 C153.57 147.17, 154.55 144.91, 157.37 142.1 M152.13 148.14 C153.2 146.2, 154.94 144.78, 157.37 142.1" stroke="#a5d8ff" stroke-width="0.5" fill="none"></path><path d="M0 0 C61.41 0.46, 121.61 -3.31, 156.38 0 M0 0 C44.92 1.6, 88.42 1.07, 156.38 0 M156.38 0 C158.97 36.33, 157.73 71.55, 156.38 147.82 M156.38 0 C156.16 43.55, 155.82 85.45, 156.38 147.82 M156.38 147.82 C102.9 148.41, 51.08 149.55, 0 147.82 M156.38 147.82 C115.17 148.48, 73.49 148.84, 0 147.82 M0 147.82 C0.3 92.23, -0.37 32.59, 0 0 M0 147.82 C-1.13 106.73, -2.31 67.2, 0 0" stroke="#1971c2" stroke-width="1" fill="none"></path></g><g stroke-linecap="round"><g transform="translate(234.06205850357674 508.18665050574987) rotate(0 29.17474720098653 27.229764054254105)"><path d="M0 0 C19.7 16.57, 38.84 34.63, 58.35 54.46 M0 0 C17.28 16.01, 33.88 30.69, 58.35 54.46" stroke="#1e1e1e" stroke-width="1" fill="none"></path></g><g transform="translate(234.06205850357674 508.18665050574987) rotate(0 29.17474720098653 27.229764054254105)"><path d="M35.45 44.42 C43.17 46.31, 50.54 49.63, 58.35 54.46 M35.45 44.42 C42.81 47.53, 49.25 49.5, 58.35 54.46" stroke="#1e1e1e" stroke-width="1" fill="none"></path></g><g transform="translate(234.06205850357674 508.18665050574987) rotate(0 29.17474720098653 27.229764054254105)"><path d="M47.26 32.05 C51.12 38.06, 54.58 45.49, 58.35 54.46 M47.26 32.05 C51.17 38.65, 54.23 44.15, 58.35 54.46" stroke="#1e1e1e" stroke-width="1" fill="none"></path></g></g><mask></mask><g stroke-linecap="round" transform="translate(577.5460822165251 423.7743819375621) rotate(0 17.50484832059192 19.060834837977893)"><path d="M0 0 C11.51 -0.13, 23.13 -0.6, 35.01 0 M35.01 0 C34.93 13.52, 34.42 28.35, 35.01 38.12 M35.01 38.12 C26.32 37.29, 19.95 37.06, 0 38.12 M0 38.12 C0.42 30.08, 0.86 23.24, 0 0" stroke="#1e1e1e" stroke-width="1.5" fill="none" stroke-dasharray="8 9"></path></g><g stroke-linecap="round" transform="translate(612.5557788577089 420.6624089027903) rotate(0 57.960497772626695 21.783811243403306)"><path d="M0 0 C23.49 -1.18, 48.55 1.64, 115.92 0 M115.92 0 C114.41 15.86, 114.38 28.51, 115.92 43.57 M115.92 43.57 C90.64 40.85, 60.03 41.78, 0 43.57 M0 43.57 C1.39 33.76, -0.97 19.98, 0 0" stroke="#1e1e1e" stroke-width="1.5" fill="none" stroke-dasharray="8 9"></path></g><g stroke-linecap="round" transform="translate(727.6987811442691 422.2183954201762) rotate(0 22.950801131442745 21.00581798471032)"><path d="M0 0 C12.98 0.82, 24.98 -0.03, 45.9 0 M45.9 0 C45.03 12.08, 45.08 22.89, 45.9 42.01 M45.9 42.01 C34.49 41.32, 24.61 42.12, 0 42.01 M0 42.01 C-0.57 29.85, -0.29 18.05, 0 0" stroke="#1e1e1e" stroke-width="1.5" fill="none" stroke-dasharray="8 9"></path></g><g stroke-linecap="round" transform="translate(575.9900956991391 462.67404487221086) rotate(0 18.282841579284877 64.1844438421704)"><path d="M0 0 C8.59 -0.64, 15.97 -1.66, 36.57 0 M36.57 0 C34.3 49.11, 34.2 102.85, 36.57 128.37 M36.57 128.37 C28.37 128.85, 21.22 129.72, 0 128.37 M0 128.37 C0.27 78.3, 2.23 29.97, 0 0" stroke="#1e1e1e" stroke-width="1.5" fill="none" stroke-dasharray="8 9"></path></g><g stroke-linecap="round" transform="translate(610.999792340323 458.784078578746) rotate(0 59.51648429001261 65.74043035955634)"><path d="M0 0 C43.02 -1.18, 88.67 -1.21, 119.03 0 M119.03 0 C116.72 44.73, 116.27 84.14, 119.03 131.48 M119.03 131.48 C88.73 133.4, 60.83 131.04, 0 131.48 M0 131.48 C1.87 96.19, 1.71 58.57, 0 0" stroke="#1e1e1e" stroke-width="1.5" fill="none" stroke-dasharray="8 9"></path></g><g stroke-linecap="round" transform="translate(727.6987811442691 460.3400650961319) rotate(0 22.172807872749672 64.96243710086338)"><path d="M0 0 C14.29 -1.14, 25.36 -1.02, 44.35 0 M44.35 0 C41.53 27.69, 42.45 58.42, 44.35 129.92 M44.35 129.92 C31.38 129.44, 14.44 130, 0 129.92 M0 129.92 C0.43 92.25, 0.32 51.52, 0 0" stroke="#1e1e1e" stroke-width="1.5" fill="none" stroke-dasharray="8 9"></path></g><g stroke-linecap="round" transform="translate(573.65611592306 591.0429325565517) rotate(0 19.44983146732443 13.225885397780587)"><path d="M0 0 C9.17 -0.53, 17.08 -0.58, 38.9 0 M38.9 0 C38.3 9.89, 39.1 20.31, 38.9 26.45 M38.9 26.45 C24.06 26.24, 9.58 27.22, 0 26.45 M0 26.45 C0.61 15.77, -0.63 5.4, 0 0" stroke="#1e1e1e" stroke-width="1.5" fill="none" stroke-dasharray="8 9"></path></g><g stroke-linecap="round" transform="translate(610.999792340323 591.0429325565517) rotate(0 58.34949440197306 12.058895509741092)"><path d="M0 0 C25.09 -0.65, 54.82 -1.11, 116.7 0 M116.7 0 C117.24 4.69, 118.11 11.77, 116.7 24.12 M116.7 24.12 C86.46 25.66, 57.97 25.5, 0 24.12 M0 24.12 C-1.24 14.03, -1.47 7.01, 0 0" stroke="#1e1e1e" stroke-width="1.5" fill="none" stroke-dasharray="8 9"></path></g><g stroke-linecap="round" transform="translate(727.6987811442691 590.2649392978587) rotate(0 22.561804502096265 11.669898880394612)"><path d="M0 0 C11.38 -0.78, 20.1 -0.32, 45.12 0 M45.12 0 C45.93 7.11, 44.75 12.24, 45.12 23.34 M45.12 23.34 C32.99 24.3, 19.7 24.24, 0 23.34 M0 23.34 C-0.59 17.52, -0.88 12.98, 0 0" stroke="#1e1e1e" stroke-width="1.5" fill="none" stroke-dasharray="8 9"></path></g><g stroke-linecap="round" transform="translate(649.1214620162787 500.4067179188201) rotate(0 78.18832249864397 73.90935957583258)"><path d="M0 0 C0 0, 0 0, 0 0 M0 0 C0 0, 0 0, 0 0 M-0.26 6.4 C0.74 5.89, 2.05 4.54, 4.99 0.36 M-0.26 6.4 C1.62 3.78, 3.52 1.56, 4.99 0.36 M0.13 12.04 C4.93 9.64, 5.96 3.8, 10.63 -0.03 M0.13 12.04 C3.28 8.27, 5.47 5.85, 10.63 -0.03 M-0.13 18.44 C7.54 12.55, 10.8 3.55, 15.62 0.33 M-0.13 18.44 C4.72 13.53, 9.16 7.17, 15.62 0.33 M0.27 24.08 C4.36 19.59, 10.18 14.36, 21.26 -0.07 M0.27 24.08 C8.61 15.6, 15.79 6.43, 21.26 -0.07 M0 30.48 C7.21 20.83, 13.79 12.34, 26.25 0.29 M0 30.48 C4.55 23.91, 10.74 18.27, 26.25 0.29 M-0.26 36.88 C9.88 27.03, 17.47 16.59, 31.89 -0.1 M-0.26 36.88 C10.44 24.05, 22.93 11.95, 31.89 -0.1 M0.14 42.52 C7.64 31.56, 15.78 21.49, 36.88 0.26 M0.14 42.52 C7.46 33.62, 16.32 23.94, 36.88 0.26 M-0.12 48.92 C11.02 38.53, 20.45 28.87, 42.52 -0.14 M-0.12 48.92 C10.13 38.48, 19.1 25.75, 42.52 -0.14 M0.27 54.56 C17.41 37.56, 29.94 16.91, 47.51 0.22 M0.27 54.56 C12.33 40.07, 26.4 24.46, 47.51 0.22 M0.01 60.96 C14.32 42.39, 31.4 22.89, 53.15 -0.17 M0.01 60.96 C15.01 43.36, 28.57 28.4, 53.15 -0.17 M-0.25 67.36 C14.19 50.24, 34.4 30.14, 58.14 0.19 M-0.25 67.36 C15.34 47.4, 32.99 29.28, 58.14 0.19 M0.14 73 C18.33 50.67, 38.63 29, 63.78 -0.21 M0.14 73 C21.52 48.43, 43.24 25.25, 63.78 -0.21 M-0.12 79.4 C16.99 58.64, 38.46 37.67, 68.77 0.15 M-0.12 79.4 C14.38 61.51, 29.82 45.73, 68.77 0.15 M0.28 85.04 C22.82 62.83, 42.24 37.12, 74.41 -0.24 M0.28 85.04 C14.6 66.71, 29.9 48.38, 74.41 -0.24 M0.01 91.44 C17.54 73.26, 32.5 50.68, 79.4 0.12 M0.01 91.44 C16.41 72.56, 33.82 53.44, 79.4 0.12 M-0.25 97.84 C29.21 62.62, 57.88 30.05, 85.04 -0.28 M-0.25 97.84 C23.42 68.7, 48.6 41.93, 85.04 -0.28 M0.15 103.48 C31.08 70.38, 58.59 34.76, 90.03 0.08 M0.15 103.48 C19.54 78.91, 39.89 56.64, 90.03 0.08 M-0.11 109.88 C22.15 82.94, 47.83 53, 95.67 -0.31 M-0.11 109.88 C24.33 82.4, 49.07 52.59, 95.67 -0.31 M0.28 115.52 C38.85 72.69, 76.92 27.07, 100.66 0.05 M0.28 115.52 C23.27 91.71, 43.79 67.6, 100.66 0.05 M0.02 121.92 C30.29 87.91, 58.38 55.66, 106.3 -0.34 M0.02 121.92 C24.63 92.08, 49.46 63.16, 106.3 -0.34 M-0.24 128.32 C23.9 101.7, 46.49 70.83, 111.29 0.02 M-0.24 128.32 C40.89 79.27, 81.89 32.99, 111.29 0.02 M0.15 133.96 C34.73 95.93, 65.48 61.86, 116.27 0.38 M0.15 133.96 C26.14 101.85, 54.32 69.37, 116.27 0.38 M-0.11 140.36 C28.03 106.61, 57.72 71.08, 121.92 -0.02 M-0.11 140.36 C30.47 105.88, 61.34 70.02, 121.92 -0.02 M0.29 146 C34.81 105.58, 72.91 64.43, 126.91 0.34 M0.29 146 C36.1 103.44, 72.2 63.73, 126.91 0.34 M3.96 147.87 C43.04 99.39, 87.96 50.79, 132.55 -0.05 M3.96 147.87 C35.97 107.89, 72.13 68.89, 132.55 -0.05 M9.6 147.47 C46.8 105.24, 83.6 59.9, 137.54 0.31 M9.6 147.47 C47.17 104.87, 84.65 61.68, 137.54 0.31 M14.59 147.83 C55.44 100.13, 94.72 57.03, 143.18 -0.09 M14.59 147.83 C65.6 91.86, 115.47 34.12, 143.18 -0.09 M19.58 148.19 C55.12 109.29, 86.21 70.03, 148.17 0.27 M19.58 148.19 C46.75 116.93, 75.52 85.1, 148.17 0.27 M25.22 147.8 C63.59 106.27, 99.31 60.71, 153.81 -0.12 M25.22 147.8 C58.84 110.6, 90.61 72.28, 153.81 -0.12 M30.21 148.16 C70.92 100.65, 112.01 53.51, 156.83 2.5 M30.21 148.16 C65.45 106.42, 103.47 62.72, 156.83 2.5 M35.85 147.77 C82.5 98.8, 126.3 46.97, 157.22 8.14 M35.85 147.77 C64.58 115.08, 92.82 83.42, 157.22 8.14 M40.84 148.13 C85.9 95.73, 129.57 47.51, 156.96 14.54 M40.84 148.13 C83.4 97.1, 126.58 48.23, 156.96 14.54 M46.48 147.73 C77.43 112.47, 104.64 82.12, 157.35 20.19 M46.48 147.73 C90.46 98.46, 132.55 47.85, 157.35 20.19 M51.47 148.09 C79.04 114.33, 112.07 77.7, 157.09 26.58 M51.47 148.09 C74.99 119.51, 99.72 93.88, 157.09 26.58 M57.11 147.7 C84.96 116.32, 112.82 86.4, 156.83 32.98 M57.11 147.7 C87.27 112.61, 117.37 76.04, 156.83 32.98 M62.1 148.06 C85.91 117.09, 112.96 90.02, 157.23 38.62 M62.1 148.06 C80.74 125.51, 102.39 102.77, 157.23 38.62 M67.74 147.66 C84.18 124.89, 105.61 105.02, 156.97 45.02 M67.74 147.66 C92.09 121, 115.28 94.47, 156.97 45.02 M72.73 148.02 C99.18 117.94, 129.71 84.38, 157.36 50.66 M72.73 148.02 C90.47 128.22, 108.77 108.53, 157.36 50.66 M78.37 147.63 C108.84 114.63, 141.05 76.42, 157.1 57.06 M78.37 147.63 C98.18 124.24, 118.09 101.8, 157.1 57.06 M83.36 147.99 C100.98 127.27, 118.16 107.57, 156.84 63.46 M83.36 147.99 C106.43 121.45, 128.36 95.49, 156.84 63.46 M89 147.59 C106.06 128.36, 123.67 107.99, 157.23 69.1 M89 147.59 C115.37 119.15, 140.16 88.39, 157.23 69.1 M93.99 147.95 C113.7 124.36, 132.05 102.01, 156.97 75.5 M93.99 147.95 C112.57 125.88, 129.33 105.12, 156.97 75.5 M99.63 147.56 C119.75 125, 137.91 102.27, 157.36 81.14 M99.63 147.56 C113.46 130.65, 129.59 113.27, 157.36 81.14 M104.62 147.92 C116.5 133.28, 133.39 115.18, 157.1 87.54 M104.62 147.92 C123.83 126.39, 143.06 104.41, 157.1 87.54 M110.26 147.52 C126.23 131, 139.08 117.14, 156.84 93.94 M110.26 147.52 C128.19 127.77, 144.57 107.02, 156.84 93.94 M115.25 147.88 C131.74 128.69, 146.16 112.34, 157.24 99.58 M115.25 147.88 C124.32 135.65, 135.67 124.88, 157.24 99.58 M120.89 147.49 C135.45 132.61, 147.47 117.53, 156.97 105.98 M120.89 147.49 C127.2 139.13, 135.66 130.09, 156.97 105.98 M125.88 147.85 C133.37 139.14, 139.27 132.43, 157.37 111.62 M125.88 147.85 C132.31 139.53, 139.4 132.65, 157.37 111.62 M130.87 148.21 C135.51 143.27, 141.33 135.13, 157.11 118.02 M130.87 148.21 C137.95 140.09, 143.66 133.74, 157.11 118.02 M136.51 147.82 C141.83 140.48, 148.51 136.24, 156.85 124.42 M136.51 147.82 C143.2 140.59, 150.45 132.57, 156.85 124.42 M141.5 148.18 C147.01 142.79, 151.37 136.41, 157.24 130.06 M141.5 148.18 C146.02 141.9, 152.78 136.56, 157.24 130.06 M147.14 147.78 C150.66 146.22, 153.2 143.44, 156.98 136.46 M147.14 147.78 C149.31 144.97, 151.97 143.28, 156.98 136.46 M152.13 148.14 C153.72 146.15, 155.81 144.64, 157.37 142.1 M152.13 148.14 C153.36 146.56, 154.85 145.26, 157.37 142.1" stroke="#a5d8ff" stroke-width="0.5" fill="none"></path><path d="M0 0 C62.15 -1.66, 119.41 -2.21, 156.38 0 M0 0 C60.48 1.13, 119.15 -0.22, 156.38 0 M156.38 0 C159.51 59.1, 157.09 114.38, 156.38 147.82 M156.38 0 C155.85 52, 155.87 105.28, 156.38 147.82 M156.38 147.82 C116.6 149.03, 80.03 149.55, 0 147.82 M156.38 147.82 C95.93 147.52, 33.92 147.34, 0 147.82 M0 147.82 C1.81 104.2, -0.77 61, 0 0 M0 147.82 C0 116.96, -1.36 86.52, 0 0" stroke="#1971c2" stroke-width="1" fill="none"></path></g><g stroke-linecap="round" transform="translate(648.0840110448485 645.4439592188494) rotate(0 78.18832249864386 19.449831467324373)"><path d="M0 0 C47.94 3.18, 92.78 3.42, 156.38 0 M0 0 C50.8 -0.91, 100.38 -1.99, 156.38 0 M156.38 0 C157.5 6.9, 158.08 18.74, 156.38 38.9 M156.38 0 C155.43 9.16, 156.41 17.87, 156.38 38.9 M156.38 38.9 C123.21 38.14, 90.11 40.88, 0 38.9 M156.38 38.9 C116.98 38.34, 76.25 39.21, 0 38.9 M0 38.9 C1.7 25.63, 0.13 15.09, 0 0 M0 38.9 C-1.01 24.56, 0.69 10.36, 0 0" stroke="#1e1e1e" stroke-width="1" fill="none"></path></g><g stroke-linecap="round" transform="translate(804.4606560421362 643.8879727014635) rotate(0 19.44983146732443 20.22782472601733)"><path d="M0 0 C7.51 -1.06, 16.31 -0.49, 38.9 0 M0 0 C15.1 -0.46, 29.44 -0.03, 38.9 0 M38.9 0 C38.86 13.59, 38.45 28.41, 38.9 40.46 M38.9 0 C38.85 15.64, 38.91 30.93, 38.9 40.46 M38.9 40.46 C29.7 41.04, 18.57 40.82, 0 40.46 M38.9 40.46 C23.71 40.46, 7.99 40.77, 0 40.46 M0 40.46 C-0.17 28.87, 0.42 15.52, 0 0 M0 40.46 C0.35 28.42, -0.21 15.27, 0 0" stroke="#1e1e1e" stroke-width="1" fill="none"></path></g><g stroke-linecap="round" transform="translate(802.1266762660575 500.7372131019562) rotate(0 20.616821355363868 71.57537979975366)"><path d="M0 0 C11.01 -0.13, 19.52 -1.4, 41.23 0 M0 0 C15.64 -0.89, 32 0.69, 41.23 0 M41.23 0 C38.87 38.85, 41.88 82.53, 41.23 143.15 M41.23 0 C41.69 50.3, 41.55 101.48, 41.23 143.15 M41.23 143.15 C30.6 144.19, 23.71 141.67, 0 143.15 M41.23 143.15 C29.83 142.64, 18.06 143.74, 0 143.15 M0 143.15 C1.39 107.97, -0.99 72.46, 0 0 M0 143.15 C-1.11 96.16, -0.19 51.63, 0 0" stroke="#1e1e1e" stroke-width="1" fill="none"></path></g></svg>